<?xml version="1.0" encoding="UTF-8"?>
<svg version="1.1" xmlns="http://www.w3.org/2000/svg" width="2350" height="376">
<path d="M0 0 C1.01587871 -0.00311998 2.03175743 -0.00623996 3.07842034 -0.00945449 C6.46902187 -0.01740648 9.85944304 -0.01112163 13.25004578 -0.00482178 C15.68654993 -0.00753293 18.12305327 -0.01109456 20.55955505 -0.01544189 C26.48311569 -0.02360896 32.40662981 -0.0224214 38.33018915 -0.01661661 C43.1477954 -0.01209197 47.96538746 -0.01149069 52.78299522 -0.01366425 C53.4698003 -0.01397071 54.15660538 -0.01427718 54.86422273 -0.01459293 C56.25968042 -0.01523241 57.6551381 -0.01588084 59.05059578 -0.01653811 C72.12595082 -0.02223663 85.20127779 -0.0156917 98.27662822 -0.00493738 C109.47920726 0.00399171 120.68174483 0.00245046 131.88432312 -0.0067749 C144.90961059 -0.01749634 157.93487345 -0.02168106 170.96016473 -0.01555037 C172.35128319 -0.01491332 173.74240166 -0.01428458 175.13352013 -0.01366425 C176.16005371 -0.01320142 176.16005371 -0.01320142 177.20732534 -0.01272924 C182.01378561 -0.01100747 186.82023017 -0.01390634 191.626688 -0.01862335 C198.10687567 -0.0248434 204.58700369 -0.02036626 211.06718445 -0.00883484 C213.44109149 -0.00619774 215.81500514 -0.00693705 218.18890953 -0.01136017 C221.43836458 -0.01685481 224.68757227 -0.00993396 227.93701172 0 C228.86835963 -0.00446144 229.79970754 -0.00892289 230.75927812 -0.01351953 C249.92315693 0.09950244 265.56326776 7.49125718 279.40898132 20.56646729 C297.06726948 38.95000656 299.11900809 60.60595264 299.03129578 84.7600708 C299.03372754 87.11539877 299.03745059 89.4707257 299.0423584 91.8260498 C299.05171772 98.18751677 299.04238399 104.54882854 299.02902627 110.91028333 C299.01881373 116.90851917 299.02132969 122.90674608 299.02322879 128.90498733 C299.02640964 140.79078985 299.01480269 152.67653221 298.99516296 164.56231689 C298.97615843 176.06689282 298.96907769 187.57139827 298.97465515 199.07598877 C298.98072755 211.63842344 298.98050953 224.20082723 298.96916932 236.76325935 C298.96319982 243.40056895 298.95948895 250.03786002 298.96213722 256.67517281 C298.96402851 262.9157942 298.95585181 269.15632593 298.94007683 275.39692688 C298.93585457 277.67969326 298.93496947 279.96246878 298.93776703 282.24523735 C298.96847374 311.79620172 298.96847374 311.79620172 293.47148132 323.44146729 C293.16178406 324.1165332 292.85208679 324.79159912 292.53300476 325.48712158 C284.02157232 343.50384926 270.13226136 355.62011144 251.72148132 362.69146729 C244.44066485 365.2645609 237.13699376 365.40033213 229.50741577 365.38768005 C228.49985302 365.38994561 227.49229027 365.39221117 226.45419532 365.39454538 C223.08584077 365.40086375 219.71752668 365.4000574 216.34916687 365.39923096 C213.93089242 365.40222379 211.51261844 365.4056266 209.09434509 365.40940857 C203.21177137 365.41732303 197.32920709 365.42046267 191.44662913 365.42102095 C186.66284136 365.42149687 181.87905688 365.42355543 177.09527016 365.42672157 C163.51891264 365.4355236 149.94256301 365.44014164 136.36620262 365.4393911 C135.63499976 365.43935114 134.90379691 365.43931119 134.1504364 365.43927002 C133.41833617 365.43922914 132.68623593 365.43918826 131.93195084 365.43914614 C120.06982857 365.43873977 108.20773804 365.44830819 96.34562495 365.46240839 C84.15251899 365.47678715 71.9594285 365.48367775 59.76631385 365.48281461 C52.92610158 365.48248316 46.08592261 365.48520724 39.245718 365.49599266 C32.81151638 365.50607327 26.37736685 365.50574699 19.94316101 365.49847603 C17.58495799 365.49743125 15.22675057 365.49978672 12.86855507 365.50583649 C9.64278711 365.51357438 6.41726071 365.50889958 3.1914978 365.50120544 C2.26433683 365.50634901 1.33717585 365.51149257 0.38191909 365.516792 C-16.75625409 365.42681979 -33.76361809 359.06885408 -46.40351868 347.32427979 C-53.10352626 340.16499749 -58.46854394 332.25402715 -62.34101868 323.25396729 C-62.78381165 322.24076416 -62.78381165 322.24076416 -63.23554993 321.20709229 C-66.70820394 312.65375727 -67.63935787 303.97407746 -67.60844421 294.81324768 C-67.61297533 293.81073304 -67.61750644 292.8082184 -67.62217486 291.77532452 C-67.63475751 288.44174154 -67.63320246 285.10832322 -67.63154602 281.77471924 C-67.63753512 279.37396537 -67.64434154 276.97321342 -67.65190125 274.57246399 C-67.66770162 268.74275851 -67.67400797 262.91310233 -67.675126 257.0833765 C-67.67607949 252.33974486 -67.68020471 247.59612646 -67.68652725 242.85249901 C-67.70412312 229.37452673 -67.71336878 215.89658617 -67.7118663 202.41860233 C-67.71178639 201.6933963 -67.71170648 200.96819027 -67.71162415 200.2210083 C-67.71154238 199.49490674 -67.71146062 198.76880518 -67.71137638 198.02070054 C-67.71056407 186.2623365 -67.72969221 174.50410073 -67.75790088 162.74577377 C-67.78670194 150.64407285 -67.8004372 138.54243435 -67.79871333 126.44069833 C-67.79805189 119.65789789 -67.80343546 112.87523191 -67.82506943 106.09246254 C-67.84451319 99.70901877 -67.84453413 93.32585787 -67.83003616 86.94240379 C-67.82795456 84.60887104 -67.83260995 82.2753203 -67.84475708 79.94181824 C-67.94940815 58.43300924 -65.12505897 40.0193738 -50.34101868 23.25396729 C-49.68488586 22.50373291 -49.02875305 21.75349854 -48.35273743 20.98052979 C-35.63403745 7.35501207 -18.48618033 -0.08792273 0 0 Z " fill="#006A3B" transform="translate(71.34101867675781,4.74603271484375)"/>
<path d="M0 0 C8.5625 9.1881524 8.5625 9.1881524 8.5625 13 C9.15675781 13.02578125 9.75101563 13.0515625 10.36328125 13.078125 C23.1274494 13.9515673 33.90264202 18.85873302 42.75 28.125 C52.43773717 39.59172284 55.57666563 52.33305215 54.74902344 66.99121094 C53.54196468 79.99079134 46.4206015 90.16079281 36.71484375 98.46484375 C34.5625 100 34.5625 100 30.9777832 101.35302734 C29.03394298 102.3559476 29.03394298 102.3559476 27.5625 104 C26.51251179 107.94202516 26.68082404 111.82946201 26.765625 115.88671875 C26.75786041 117.64409111 26.75786041 117.64409111 26.74993896 119.43696594 C26.73802534 123.18799504 26.77259013 126.93669303 26.8125 130.6875 C26.83129373 134.41998254 26.83996213 138.15195229 26.83221436 141.88447571 C26.82955085 144.20628578 26.8430949 146.52818906 26.87530518 148.84977722 C26.89612194 156.78729184 26.48109938 163.87777741 20.875 169.875 C13.75759272 174.44088392 7.77706221 175.44377554 -0.49023438 175.38818359 C-1.46366287 175.39344055 -2.43709137 175.39869751 -3.4400177 175.40411377 C-6.63726145 175.41724853 -9.83400174 175.40859867 -13.03125 175.3984375 C-15.26509699 175.4004601 -17.49894334 175.4033731 -19.73278809 175.40713501 C-24.40639556 175.41154954 -29.0798306 175.40515525 -33.75341797 175.39111328 C-39.73196896 175.37402212 -45.71011586 175.38386794 -51.68865204 175.40183067 C-56.29900129 175.41269196 -60.90925537 175.40921137 -65.51960754 175.4014473 C-67.72353666 175.39945178 -69.92747454 175.40188168 -72.13139343 175.40888596 C-75.21608234 175.41653891 -78.30012464 175.40484206 -81.38476562 175.38818359 C-82.28785965 175.39425629 -83.19095367 175.40032898 -84.12141418 175.40658569 C-91.154452 175.33653012 -96.92652425 174.34357737 -102.25 169.375 C-107.70187731 161.88181042 -107.85483043 153.46549075 -107.73046875 144.52734375 C-107.72622391 143.3636879 -107.72197906 142.20003204 -107.71760559 141.00111389 C-107.70091785 137.31299942 -107.66328319 133.62544714 -107.625 129.9375 C-107.6099404 127.42513814 -107.59625424 124.91276765 -107.58398438 122.40039062 C-107.55104677 116.2667378 -107.50094658 110.13340908 -107.4375 104 C-108.21689941 103.69980957 -108.99629883 103.39961914 -109.79931641 103.09033203 C-119.25616395 99.18192178 -126.94493913 90.58706726 -131.25 81.5 C-136.59312352 68.61674493 -137.44982394 55.237002 -132.7578125 41.96484375 C-126.9174635 28.8499772 -116.57423636 20.31766691 -103.4375 15 C-98.79395912 13.54320286 -94.32522647 12.68466281 -89.4375 13 C-89.19644531 12.28457031 -88.95539063 11.56914063 -88.70703125 10.83203125 C-83.70787381 -0.31993534 -71.99736106 -8.04478158 -61 -12.34375 C-39.7166833 -19.24112115 -16.51608291 -15.98930353 0 0 Z " fill="#F4F6F5" transform="translate(227.4375,108)"/>
<path d="M0 0 C0.886875 0.66 1.77375 1.32 2.6875 2 C3.47125 2.55300781 4.255 3.10601562 5.0625 3.67578125 C8.26086048 6.50766292 10.19117288 9.55274856 12.375 13.1875 C14.83771536 17.78261901 14.83771536 17.78261901 18.6875 21 C20.50608598 21.21015696 22.32527442 21.41647793 24.1472168 21.59521484 C34.04748721 22.58870235 42.1977402 24.61655838 49.03125 32.5625 C54.27319366 39.38921733 55.5044708 46.54500064 54.6875 55 C53.1233828 62.93888059 49.40932985 69.33218429 42.8046875 74.06640625 C40.70348387 75.42676781 38.59417554 76.77470078 36.4765625 78.109375 C32.50832353 80.79932971 29.84603723 83.68292554 27.6875 88 C27.3575 94.6 27.0275 101.2 26.6875 108 C-4.9925 108 -36.6725 108 -69.3125 108 C-69.8075 98.595 -69.8075 98.595 -70.3125 89 C-74.47658689 81.68238879 -74.47658689 81.68238879 -80.3125 78 C-80.3125 77.34 -80.3125 76.68 -80.3125 76 C-81.034375 75.938125 -81.75625 75.87625 -82.5 75.8125 C-88.94551306 73.95046289 -91.83119577 67.83341867 -95.078125 62.40234375 C-98.7513531 55.25349792 -97.95771415 47.34437521 -95.8125 39.8125 C-93.64462779 33.84510617 -90.57724856 30.44406039 -85.3125 27 C-84.24902344 26.29746094 -83.18554688 25.59492188 -82.08984375 24.87109375 C-77.42107912 22.24300188 -72.70083458 22.20737185 -67.453125 21.95507812 C-63.41777413 21.64049432 -61.70295651 21.31098775 -58.43359375 18.70703125 C-56.59840918 16.36488962 -55.25249079 14.30407297 -54 11.625 C-49.58981242 3.35418092 -41.35973598 -2.54129767 -32.5546875 -5.61328125 C-20.6615599 -7.66453496 -10.29573151 -6.21629072 0 0 Z " fill="#016A3C" transform="translate(208.3125,118)"/>
<path d="M0 0 C1.17272461 -0.01836914 1.17272461 -0.01836914 2.36914062 -0.03710938 C12.88765086 -0.06347156 22.75213718 3.60109064 30.4375 10.875 C45.0617427 26.64913275 45.84051758 45.96138181 45.328125 66.34179688 C45.0400508 72.17129834 43.92634596 77.60964348 42.1875 83.1875 C41.92066406 84.07050781 41.65382813 84.95351562 41.37890625 85.86328125 C37.36287028 97.34021961 29.46136579 107.075046 18.546875 112.5 C7.47444346 116.85636651 -5.62329547 117.06909245 -16.5859375 112.31640625 C-23.12882102 108.99904952 -25.77926497 106.05960753 -30.8125 100.1875 C-31.1425 114.7075 -31.4725 129.2275 -31.8125 144.1875 C-40.0625 144.1875 -48.3125 144.1875 -56.8125 144.1875 C-56.8125 97.3275 -56.8125 50.4675 -56.8125 2.1875 C-48.8925 2.1875 -40.9725 2.1875 -32.8125 2.1875 C-32.4825 7.1375 -32.1525 12.0875 -31.8125 17.1875 C-30.925625 15.95 -30.03875 14.7125 -29.125 13.4375 C-21.53158345 3.38374568 -12.17144141 0.00988744 0 0 Z " fill="#0D0D0F" transform="translate(2067.8125,147.8125)"/>
<path d="M0 0 C0.97283936 0.00563965 1.94567871 0.0112793 2.94799805 0.01708984 C15.32300406 0.22587221 25.09282162 2.45353739 34.21875 11.19921875 C44.22988388 21.99512372 45.53132538 33.72305852 45.55859375 47.99609375 C45.58372112 50.41081005 45.60911954 52.82552353 45.63476562 55.24023438 C45.66364761 59.01488704 45.68769464 62.78949142 45.70629883 66.56420898 C45.72785363 70.22923621 45.76724421 73.89374444 45.80859375 77.55859375 C45.80876747 79.26008827 45.80876747 79.26008827 45.8089447 80.99595642 C45.82895287 82.56888206 45.82895287 82.56888206 45.84936523 84.17358398 C45.85443588 85.0960643 45.85950653 86.01854462 45.86473083 86.96897888 C46.10571326 89.30529101 46.10571326 89.30529101 47.27503967 91.07118225 C50.00188023 92.9793266 50.00188023 92.9793266 57.25 93.3125 C57.25 99.9125 57.25 106.5125 57.25 113.3125 C53.0425 113.4053125 53.0425 113.4053125 48.75 113.5 C47.4496582 113.54096802 47.4496582 113.54096802 46.12304688 113.58276367 C39.78599987 113.64955259 34.29717743 112.75255479 29.19140625 108.6640625 C26.50487022 105.30018452 24.52091656 102.78262332 24.25 98.3125 C23.59 98.3125 22.93 98.3125 22.25 98.3125 C22.023125 98.869375 21.79625 99.42625 21.5625 100 C17.40527311 107.32463786 9.06872901 112.39212595 1.12890625 114.80859375 C-11.52544612 117.02353467 -24.18104086 116.15217689 -35.0625 109.0625 C-39.22581264 105.94980387 -42.29230816 102.89819332 -44.75 98.3125 C-45.06710937 97.73113281 -45.38421875 97.14976562 -45.7109375 96.55078125 C-48.84419787 89.6949776 -48.89359989 81.64058575 -46.98828125 74.4296875 C-42.98511765 63.82842421 -35.86813864 58.68575445 -25.83203125 53.9296875 C-11.39598892 48.22700245 4.85991904 45.80447834 20.25 44.3125 C18.88905768 33.16574148 18.88905768 33.16574148 12.25 24.5 C6.52676945 21.10183186 -1.62871999 21.38283293 -7.94921875 22.80859375 C-12.76974736 24.65942577 -15.44730372 27.61165125 -17.65625 32.19140625 C-18.39382428 33.88168065 -19.07670858 35.59560687 -19.75 37.3125 C-28.49507107 37.41871544 -37.05019136 37.32536753 -45.75 36.3125 C-44.59611961 25.66854213 -40.10739054 16.68869586 -31.8125 9.8125 C-21.75544283 2.47891217 -12.37977396 -0.07468622 0 0 Z " fill="#036B3D" transform="translate(1227.75,147.6875)"/>
<path d="M0 0 C1.30324219 -0.01836914 1.30324219 -0.01836914 2.6328125 -0.03710938 C15.79511561 -0.0667542 27.67408551 4.78051882 37.22265625 13.94921875 C50.13598521 28.20613107 52.25 45.55216009 52.25 64.1875 C26.84 64.1875 1.43 64.1875 -24.75 64.1875 C-20.16249754 80.12702447 -20.16249754 80.12702447 -8.75 90.1875 C-2.19047821 92.37400726 6.59044448 92.53314389 13.12890625 90.12890625 C18.87472279 86.54141674 20.33771114 83.44716217 24.25 77.1875 C32.5 77.8475 40.75 78.5075 49.25 79.1875 C47.40214552 87.50284516 46.04344397 90.8563096 41.25 97.1875 C40.5075 98.21875 39.765 99.25 39 100.3125 C33.09017891 106.49094932 26.38036886 110.65509003 18.25 113.1875 C16.68185547 113.70763672 16.68185547 113.70763672 15.08203125 114.23828125 C1.12323061 117.69596581 -13.58522255 115.35671749 -26.0625 108.4375 C-37.79260092 100.83289649 -45.1400306 89.62769375 -48.75 76.1875 C-49.80900335 69.72200586 -49.93321787 63.35559601 -49.9375 56.8125 C-49.94974609 55.83539063 -49.96199219 54.85828125 -49.97460938 53.8515625 C-50.0057023 38.2636429 -45.01907101 24.64229132 -34.609375 12.91796875 C-24.69690335 3.69270627 -13.20205827 0.00962249 0 0 Z " fill="#0D0D0F" transform="translate(2177.75,147.8125)"/>
<path d="M0 0 C11.75125337 8.10954501 18.28965421 18.26851507 22.125 32 C22.33656738 32.72477539 22.54813477 33.44955078 22.76611328 34.19628906 C24.84061916 42.35660071 24.1875 48.75723 24.1875 57.75 C-1.2225 57.75 -26.6325 57.75 -52.8125 57.75 C-48.22499754 73.68952447 -48.22499754 73.68952447 -36.8125 83.75 C-30.25297821 85.93650726 -21.47205552 86.09564389 -14.93359375 83.69140625 C-9.18777721 80.10391674 -7.72478886 77.00966217 -3.8125 70.75 C4.4375 71.41 12.6875 72.07 21.1875 72.75 C19.33964552 81.06534516 17.98094397 84.4188096 13.1875 90.75 C12.445 91.78125 11.7025 92.8125 10.9375 93.875 C5.02767891 100.05344932 -1.68213114 104.21759003 -9.8125 106.75 C-11.38064453 107.27013672 -11.38064453 107.27013672 -12.98046875 107.80078125 C-26.93926939 111.25846581 -41.64772255 108.91921749 -54.125 102 C-66.37848929 94.05608474 -73.20712769 82.74624018 -76.8125 68.75 C-77.9606142 62.64686663 -77.99598471 56.62505921 -78 50.4375 C-78.01224609 49.45587891 -78.02449219 48.47425781 -78.03710938 47.46289062 C-78.06619439 32.81374036 -73.88476607 20.3887624 -64.8125 8.75 C-62.59375 7.43359375 -62.59375 7.43359375 -60.8125 6.75 C-60.8125 6.09 -60.8125 5.43 -60.8125 4.75 C-43.70498807 -8.30076737 -18.87081564 -11.34799049 0 0 Z " fill="#0D0D0F" transform="translate(1732.8125,154.25)"/>
<path d="M0 0 C8.25 0 16.5 0 25 0 C25.33 28.05 25.66 56.1 26 85 C34.23367492 76.13296547 42.34014745 67.3332949 50.1418457 58.11767578 C51.17847729 56.90698964 52.22671957 55.70615595 53.28588867 54.51513672 C55.93182299 51.52827081 58.30336996 48.61526654 60.38671875 45.20703125 C63.05969344 41.18223821 65.47697894 37.97503417 70 36 C79.88130658 34.41726179 90.07330148 35.20113712 100 36 C98.15420687 39.97113914 95.55396056 42.85057453 92.5625 46 C91.47633759 47.15994569 90.39040528 48.32010687 89.3046875 49.48046875 C88.75393555 50.06618652 88.20318359 50.6519043 87.63574219 51.25537109 C85.13397797 53.92367066 82.65861486 56.61583314 80.1875 59.3125 C79.73020508 59.81112549 79.27291016 60.30975098 78.80175781 60.82348633 C75.71959134 64.19243122 72.68040685 67.5932728 69.70703125 71.05859375 C68.42432334 72.51741716 67.10216845 73.94170464 65.76171875 75.34765625 C65.01535156 76.14042969 64.26898437 76.93320313 63.5 77.75 C62.8090625 78.46671875 62.118125 79.1834375 61.40625 79.921875 C59.76164166 81.85214916 59.76164166 81.85214916 60.26831055 83.91040039 C61.03421797 86.09772159 61.94642113 87.63655055 63.30078125 89.51171875 C63.77700928 90.17800293 64.2532373 90.84428711 64.74389648 91.53076172 C65.26153564 92.24248535 65.7791748 92.95420898 66.3125 93.6875 C67.41417049 95.22518305 68.51572999 96.76294563 69.6171875 98.30078125 C70.18147461 99.08404785 70.74576172 99.86731445 71.32714844 100.67431641 C73.88308169 104.22770522 76.41221283 107.79979381 78.9375 111.375 C79.42323486 112.06134521 79.90896973 112.74769043 80.40942383 113.45483398 C84.89333357 119.80856709 89.27959655 126.22803996 93.63647461 132.66943359 C95.79741645 135.85115089 97.94699563 138.93479067 100.375 141.921875 C102 144 102 144 102 146 C97.99911307 146.24888281 94.00126335 146.42936435 89.99438477 146.54931641 C88.63486228 146.59934038 87.27587087 146.66739674 85.91821289 146.75439453 C74.67842085 147.45610759 74.67842085 147.45610759 70.68676758 143.99316406 C68.87745604 141.4108926 67.42626166 138.80935777 66 136 C65.13396527 134.70289528 64.24648246 133.41968809 63.33203125 132.15625 C58.28306792 124.8415114 53.27697693 117.49732596 48.3125 110.125 C47.51839722 108.95614258 47.51839722 108.95614258 46.70825195 107.76367188 C46.22316162 107.03986328 45.73807129 106.31605469 45.23828125 105.5703125 C44.80555908 104.92852051 44.37283691 104.28672852 43.92700195 103.62548828 C43 102 43 102 43 100 C38.72632564 103.33555072 35.20622463 106.89168207 31.7109375 111.03515625 C30 113 30 113 27.93115234 114.7019043 C25.34175488 117.78332001 25.46062288 119.74449589 25.390625 123.734375 C25.35839844 125.02988281 25.32617188 126.32539063 25.29296875 127.66015625 C25.27822531 129.02343302 25.26390778 130.38671445 25.25 131.75 C25.22183186 133.12894376 25.19190322 134.50785275 25.16015625 135.88671875 C25.0894407 139.2574935 25.04245906 142.62875093 25 146 C16.75 146 8.5 146 0 146 C0 97.82 0 49.64 0 0 Z " fill="#016A3C" transform="translate(1421,114)"/>
<path d="M0 0 C1.07636719 -0.00773438 2.15273437 -0.01546875 3.26171875 -0.0234375 C16.71330534 0.00933129 26.7929857 3.34081724 36.90625 12.5 C42.89617052 19.07716763 47.5 28.23133727 47.5 37.25 C39.14895793 37.93271293 30.88011029 38.40392039 22.5 38.25 C21.984375 37.05375 21.46875 35.8575 20.9375 34.625 C18.6824925 30.09082421 15.69216544 27.06098796 11.5 24.25 C7.51977513 22.92325838 3.85636239 22.98748636 -0.3125 22.9375 C-1.50456055 22.89399414 -1.50456055 22.89399414 -2.72070312 22.84960938 C-8.14296879 22.79130544 -11.22117398 23.61332551 -15.5 27.25 C-17.95777568 30.93666352 -18.30407265 33.96998827 -17.5 38.25 C-11.60638024 46.28675422 -1.63882551 47.20351042 7.5 49.0625 C36.80631228 55.34116312 36.80631228 55.34116312 44.5 65.25 C49.13574641 72.64859814 49.46803494 80.7372804 48.5 89.25 C46.5366243 97.02217956 41.54672509 103.38815602 35.05859375 107.9765625 C19.87258717 116.95111661 0.2490036 117.70105346 -16.6875 113.6875 C-28.87234438 109.83612298 -37.87474912 103.02880479 -43.87890625 91.6328125 C-46.04213507 86.67321472 -46.96873145 82.64041169 -46.5 77.25 C-38.14736824 76.29541351 -29.90215965 76.13960666 -21.5 76.25 C-21.22027344 76.91386719 -20.94054688 77.57773438 -20.65234375 78.26171875 C-17.96543908 84.17982068 -15.55073004 88.47347452 -9.5 91.25 C-1.08088134 93.35477966 9.27471298 93.21929449 17.5 90.25 C20.19138543 88.80985074 20.19138543 88.80985074 21.5 86.25 C22.1008357 83.44224854 22.36618339 81.0045708 21.5 78.25 C17.8399712 74.52155945 14.40423223 73.43297576 9.375 72.3125 C7.95025272 71.98031454 6.525785 71.64692831 5.1015625 71.3125 C3.98056152 71.05533203 3.98056152 71.05533203 2.83691406 70.79296875 C-32.09904072 62.67579748 -32.09904072 62.67579748 -40.9375 50 C-45.47456014 42.01477415 -44.84603436 29.73262776 -42.69921875 20.98828125 C-38.65697125 12.13978758 -30.45912038 5.68053949 -21.5 2.25 C-14.38114985 0.07197947 -7.39490389 -0.05313703 0 0 Z " fill="#0E0E10" transform="translate(2295.5,147.75)"/>
<path d="M0 0 C7.23778979 5.69418533 13.16122613 13.38816189 15 22.58203125 C15.24216135 24.69513779 15.36986021 26.82086096 15.47265625 28.9453125 C7.11645668 29.70006601 -1.1372966 30.08136732 -9.52734375 29.9453125 C-10.04296875 28.7490625 -10.55859375 27.5528125 -11.08984375 26.3203125 C-13.34485125 21.78613671 -16.33517831 18.75630046 -20.52734375 15.9453125 C-24.50756862 14.61857088 -28.17098136 14.68279886 -32.33984375 14.6328125 C-33.5319043 14.58930664 -33.5319043 14.58930664 -34.74804688 14.54492188 C-40.1646944 14.48667835 -43.24258498 15.31974739 -47.52734375 18.9453125 C-49.37833955 22.64730411 -48.98584069 26.90398943 -48.52734375 30.9453125 C-45.45915213 35.73169143 -39.85093729 37.38497982 -34.52758789 38.66870117 C-29.75777157 39.66337274 -24.97856099 40.60196179 -20.19335938 41.51953125 C-7.4123379 44.10197427 4.53125687 48.0104243 13.47265625 57.9453125 C17.79692349 64.64792672 17.09683179 74.31840044 16.47265625 81.9453125 C15.55841877 85.26119973 14.26740076 88.0210085 12.47265625 90.9453125 C11.93640625 91.8321875 11.40015625 92.7190625 10.84765625 93.6328125 C3.71098124 100.58168027 -5.07597588 103.44799985 -14.52734375 105.9453125 C-15.46864136 106.20900635 -15.46864136 106.20900635 -16.42895508 106.47802734 C-30.54942625 109.62248131 -47.52380361 107.12504709 -60.02734375 100.1328125 C-69.12523774 94.06252892 -75.77050898 86.15158018 -78.12109375 75.171875 C-78.35579214 73.10522528 -78.45805111 71.02409169 -78.52734375 68.9453125 C-70.16986153 68.10203501 -61.92536629 67.82340572 -53.52734375 67.9453125 C-53.29660156 68.46480469 -53.06585937 68.98429687 -52.828125 69.51953125 C-50.00737921 75.55124459 -47.10008007 80.13573827 -40.71484375 82.7578125 C-36.32462593 84.04905303 -31.95238853 84.25907297 -27.40234375 84.3203125 C-26.73356201 84.33425049 -26.06478027 84.34818848 -25.37573242 84.36254883 C-19.70455514 84.30873729 -14.80923823 83.07998798 -10.58984375 79.1328125 C-9.14148241 76.1508921 -9.04968075 74.2207159 -9.52734375 70.9453125 C-13.23783538 66.17468041 -17.57675369 64.79167365 -23.33203125 63.61328125 C-24.46656738 63.37480469 -25.60110352 63.13632813 -26.77001953 62.890625 C-27.96868652 62.64054687 -29.16735352 62.39046875 -30.40234375 62.1328125 C-62.66261457 55.14841063 -62.66261457 55.14841063 -72.3359375 42.16796875 C-76.66983613 34.08276114 -76.97386732 23.70903787 -74.76953125 14.92578125 C-70.97057851 4.94979118 -64.29105148 -0.70709265 -54.828125 -5.390625 C-37.87572811 -11.77323638 -14.92291482 -10.2635299 0 0 Z " fill="#036C3D" transform="translate(1026.52734375,156.0546875)"/>
<path d="M0 0 C8.25 0 16.5 0 25 0 C25.0093457 2.11825195 25.01869141 4.23650391 25.02832031 6.41894531 C25.06226298 13.45985547 25.11790641 20.50047786 25.18390274 27.54115677 C25.2232179 31.80512154 25.25548384 36.06888474 25.27099609 40.33300781 C25.28626891 44.45706259 25.32089908 48.58056256 25.36830902 52.70436859 C25.38301431 54.26857397 25.3910347 55.8328586 25.39188385 57.39713287 C25.33067526 73.38455015 25.33067526 73.38455015 32.5 87.1875 C37.41511523 90.75095854 43.11842389 90.52562622 49 90 C51.57823544 89.24943619 53.59013197 88.25313137 56 87 C56.763125 86.71125 57.52625 86.4225 58.3125 86.125 C60.77556996 84.48295336 61.08667984 82.80084849 62 80 C62.75567261 78.44249023 62.75567261 78.44249023 63.52661133 76.85351562 C66.05913936 70.07911593 65.48340081 62.60327324 65.51171875 55.46875 C65.52858472 53.86591228 65.54673752 52.26308763 65.56611633 50.66027832 C65.61341454 46.46496669 65.64335386 42.26970809 65.66955566 38.07421875 C65.69946363 33.7837477 65.74595853 29.49345897 65.79101562 25.203125 C65.87681899 16.80215827 65.94273053 8.40120975 66 0 C74.25 0 82.5 0 91 0 C91 36.3 91 72.6 91 110 C83.41 110 75.82 110 68 110 C68 105.05 68 100.1 68 95 C67.34 95 66.68 95 66 95 C65.814375 95.680625 65.62875 96.36125 65.4375 97.0625 C61.4569988 105.19656767 54.32161467 108.91501094 46.23828125 112.08203125 C37.7096104 114.49968825 27.20112143 114.15369085 19.1796875 110.33203125 C8.76368903 103.96669885 3.48939936 94.83557974 0.45016861 83.18629074 C-0.99206771 76.18191984 -0.59883151 68.92764765 -0.48828125 61.81640625 C-0.47892902 60.02181495 -0.47182435 58.22721068 -0.46684265 56.43260193 C-0.44796202 51.76186431 -0.39903058 47.09193289 -0.34332275 42.42150879 C-0.29171581 37.63463235 -0.26924109 32.84762269 -0.24414062 28.06054688 C-0.19088821 18.70662422 -0.10311351 9.35350598 0 0 Z " fill="#0D0D0F" transform="translate(595,150)"/>
<path d="M0 0 C1.55874939 1.01592612 3.10253968 2.05545798 4.625 3.125 C5.19992187 3.5271875 5.77484375 3.929375 6.3671875 4.34375 C13.72844481 9.98865198 19.55903335 18.72024238 21.08984375 27.91796875 C21.33744849 30.32278737 21.52416396 32.70997683 21.625 35.125 C18.62484088 36.12505304 16.65076244 36.24075585 13.51953125 36.22265625 C12.53662109 36.21943359 11.55371094 36.21621094 10.54101562 36.21289062 C9.51685547 36.20451172 8.49269531 36.19613281 7.4375 36.1875 C6.40173828 36.18298828 5.36597656 36.17847656 4.29882812 36.17382812 C1.74082734 36.1620401 -0.81705733 36.14558515 -3.375 36.125 C-3.75011719 35.30515625 -4.12523437 34.4853125 -4.51171875 33.640625 C-5.02347656 32.56296875 -5.53523438 31.4853125 -6.0625 30.375 C-6.81080078 28.77398437 -6.81080078 28.77398437 -7.57421875 27.140625 C-10.69975665 21.90653551 -15.49140266 18.67623094 -21.375 17.125 C-29.37867879 15.99391175 -35.78845504 17.39055907 -42.375 22.125 C-49.77582774 29.01652347 -52.44298182 38.85803655 -52.8984375 48.6809082 C-53.07810818 59.34773204 -51.28764518 69.61947266 -44.5 78.25 C-38.88180896 83.81186832 -34.90935396 85.3872448 -27 85.6875 C-20.37897117 85.47181002 -15.3049401 84.75646773 -10.375 80.125 C-6.71035499 75.37885679 -4.45927526 71.01246748 -3.375 65.125 C0.39581722 65.09600401 4.16660583 65.07820271 7.9375 65.0625 C9.00935547 65.05412109 10.08121094 65.04574219 11.18554688 65.03710938 C12.21357422 65.03388672 13.24160156 65.03066406 14.30078125 65.02734375 C15.24864502 65.02210693 16.19650879 65.01687012 17.1730957 65.01147461 C19.625 65.125 19.625 65.125 22.625 66.125 C21.51859579 75.92458015 17.22076979 86.66571717 10.625 94.125 C9.965 94.125 9.305 94.125 8.625 94.125 C8.13 95.61 8.13 95.61 7.625 97.125 C-4.52447398 107.50325226 -19.92789582 110.16502473 -35.375 109.125 C-46.99286428 107.74289836 -57.98296165 101.6592238 -65.890625 93.02734375 C-78.42621346 76.96199749 -80.82035042 58.69563723 -79.09765625 38.9453125 C-76.92730021 24.68297283 -69.85458653 12.13925772 -58.5625 3.1875 C-53.14190762 -0.65294504 -47.76144092 -3.11032554 -41.375 -4.875 C-40.75560547 -5.0493457 -40.13621094 -5.22369141 -39.49804688 -5.40332031 C-26.74731498 -8.23616461 -11.2516077 -6.45802335 0 0 Z " fill="#0E0E10" transform="translate(1852.375,153.875)"/>
<path d="M0 0 C1.55874939 1.01592612 3.10253968 2.05545798 4.625 3.125 C5.19992187 3.5271875 5.77484375 3.929375 6.3671875 4.34375 C13.72844481 9.98865198 19.55903335 18.72024238 21.08984375 27.91796875 C21.33744849 30.32278737 21.52416396 32.70997683 21.625 35.125 C18.62484088 36.12505304 16.65076244 36.24075585 13.51953125 36.22265625 C12.53662109 36.21943359 11.55371094 36.21621094 10.54101562 36.21289062 C9.51685547 36.20451172 8.49269531 36.19613281 7.4375 36.1875 C6.40173828 36.18298828 5.36597656 36.17847656 4.29882812 36.17382812 C1.74082734 36.1620401 -0.81705733 36.14558515 -3.375 36.125 C-3.75011719 35.30515625 -4.12523437 34.4853125 -4.51171875 33.640625 C-5.02347656 32.56296875 -5.53523438 31.4853125 -6.0625 30.375 C-6.81080078 28.77398437 -6.81080078 28.77398437 -7.57421875 27.140625 C-10.69975665 21.90653551 -15.49140266 18.67623094 -21.375 17.125 C-29.37867879 15.99391175 -35.78845504 17.39055907 -42.375 22.125 C-49.77582774 29.01652347 -52.44298182 38.85803655 -52.8984375 48.6809082 C-53.07809377 59.34687655 -51.26229575 69.56779893 -44.5625 78.25 C-39.15674396 83.62852301 -34.11438025 85.37836539 -26.5 85.75 C-19.51749759 85.51799831 -14.53294822 83.91173225 -9.375 79.125 C-6.01830411 74.69602625 -4.40280396 70.54438094 -3.375 65.125 C0.39581722 65.09600401 4.16660583 65.07820271 7.9375 65.0625 C9.00935547 65.05412109 10.08121094 65.04574219 11.18554688 65.03710938 C12.21357422 65.03388672 13.24160156 65.03066406 14.30078125 65.02734375 C15.24864502 65.02210693 16.19650879 65.01687012 17.1730957 65.01147461 C19.625 65.125 19.625 65.125 22.625 66.125 C21.12918153 75.55259271 18.30677044 83.37713122 12.625 91.125 C11.903125 92.115 11.18125 93.105 10.4375 94.125 C3.22348278 102.52669079 -7.9063906 106.55473025 -18.375 109.125 C-35.4710455 110.41685035 -48.85211062 107.31835218 -62.5390625 96.3984375 C-73.6471924 86.07325949 -78.83324667 70.78696807 -79.6328125 55.98828125 C-80.12667584 41.8585588 -77.87309197 28.35640077 -70.375 16.125 C-69.96894531 15.44308594 -69.56289062 14.76117188 -69.14453125 14.05859375 C-62.65849652 4.33905197 -52.46534814 -1.8105617 -41.375 -4.875 C-40.75560547 -5.0493457 -40.13621094 -5.22369141 -39.49804688 -5.40332031 C-26.74731498 -8.23616461 -11.2516077 -6.45802335 0 0 Z " fill="#036B3D" transform="translate(1379.375,153.875)"/>
<path d="M0 0 C1.50818047 0.00848969 1.50818047 0.00848969 3.04682922 0.01715088 C6.215326 0.03929795 9.38263422 0.08945188 12.55078125 0.140625 C14.71678039 0.16071806 16.88279749 0.17896387 19.04882812 0.1953125 C24.32112354 0.23566685 29.59089374 0.31399765 34.86328125 0.390625 C34.86328125 6.990625 34.86328125 13.590625 34.86328125 20.390625 C32.39472656 20.42800781 29.92617188 20.46539062 27.3828125 20.50390625 C24.98322864 20.55016188 22.58379828 20.60138071 20.18432617 20.65307617 C18.52101017 20.68626155 16.85758329 20.71431334 15.1940918 20.73706055 C12.79818626 20.77072499 10.4032909 20.8230444 8.0078125 20.87890625 C6.89814873 20.88849113 6.89814873 20.88849113 5.7660675 20.89826965 C1.30935187 21.02423111 -1.5702228 21.67840478 -5.13671875 24.390625 C-7.91887867 28.1465409 -7.51308932 31.4015896 -8.13671875 36.390625 C5.72328125 36.390625 19.58328125 36.390625 33.86328125 36.390625 C33.86328125 43.320625 33.86328125 50.250625 33.86328125 57.390625 C20.00328125 57.390625 6.14328125 57.390625 -8.13671875 57.390625 C-8.13671875 86.760625 -8.13671875 116.130625 -8.13671875 146.390625 C-16.38671875 146.390625 -24.63671875 146.390625 -33.13671875 146.390625 C-33.46671875 117.020625 -33.79671875 87.650625 -34.13671875 57.390625 C-47.99671875 56.895625 -47.99671875 56.895625 -62.13671875 56.390625 C-62.13671875 49.790625 -62.13671875 43.190625 -62.13671875 36.390625 C-52.56671875 36.390625 -42.99671875 36.390625 -33.13671875 36.390625 C-33.13671875 31.770625 -33.13671875 27.150625 -33.13671875 22.390625 C-31.58992068 14.94665929 -28.31020473 9.02960944 -22.13671875 4.390625 C-14.71514948 0.9380659 -8.11980003 -0.17656514 0 0 Z " fill="#0D0D0F" transform="translate(536.13671875,113.609375)"/>
<path d="M0 0 C5.21128143 -0.09246236 10.41965148 -0.17190191 15.63110352 -0.21972656 C17.39910593 -0.23968762 19.16704366 -0.26686652 20.93481445 -0.30175781 C30.97853977 -0.49485177 39.79940038 -0.62785972 49 4 C50.093125 4.53625 51.18625 5.0725 52.3125 5.625 C58.91297768 11.45798028 62.50491281 19.58577188 63.17941666 28.32447815 C63.24442547 30.91445529 63.24760515 33.49717669 63.22705078 36.08789062 C63.22734283 37.06441589 63.22763489 38.04094116 63.22793579 39.04705811 C63.22655097 42.25021488 63.21102977 45.45313424 63.1953125 48.65625 C63.19157936 50.88683953 63.18873381 53.1174307 63.18673706 55.34802246 C63.17912435 61.20056741 63.15949617 67.05301207 63.1373291 72.90551758 C63.11681973 78.88491459 63.10772447 84.8643279 63.09765625 90.84375 C63.07624801 102.562551 63.04108515 114.28125145 63 126 C74.88 126 86.76 126 99 126 C99 132.6 99 139.2 99 146 C65.01 146 31.02 146 -4 146 C-4 139.4 -4 132.8 -4 126 C9.86 126 23.72 126 38 126 C37.88018865 109.0594819 37.88018865 109.0594819 37.7421875 92.11914062 C37.68186781 85.21039689 37.62368328 78.30168117 37.578125 71.39282227 C37.54126394 65.82307329 37.49490144 60.25347718 37.44193649 54.68385887 C37.42339697 52.55841947 37.40828738 50.43294731 37.39665604 48.30745888 C37.37978625 45.33152216 37.35074896 42.35593521 37.31884766 39.38012695 C37.31668747 38.50043243 37.31452728 37.62073792 37.31230164 36.71438599 C37.25337324 32.41420792 37.14959751 28.8485439 35 25 C30.72404286 21.38719239 27.60842151 20.48864463 22.0703125 20.390625 C20.78125 20.35839844 19.4921875 20.32617188 18.1640625 20.29296875 C16.81771285 20.2782277 15.4713585 20.26391 14.125 20.25 C12.75517097 20.22181288 11.38537665 20.19188163 10.015625 20.16015625 C6.67740144 20.0896304 3.33869758 20.04253118 0 20 C0 13.4 0 6.8 0 0 Z " fill="#0C0C0E" transform="translate(830,114)"/>
<path d="M0 0 C5.21128143 -0.09246236 10.41965148 -0.17190191 15.63110352 -0.21972656 C17.39910593 -0.23968762 19.16704366 -0.26686652 20.93481445 -0.30175781 C33.92147253 -0.55143063 45.39549587 -0.44664199 55.34765625 9.078125 C62.00768122 16.82453702 63.30490145 26.12298444 63.22705078 35.97436523 C63.22734283 36.95074448 63.22763489 37.92712372 63.22793579 38.93309021 C63.22654892 42.14168362 63.21101792 45.35004119 63.1953125 48.55859375 C63.19158009 50.79061252 63.18873419 53.02263293 63.18673706 55.25465393 C63.17911859 61.11543337 63.1594854 66.97611292 63.1373291 72.83685303 C63.1168322 78.82286223 63.10772712 84.80888765 63.09765625 90.79492188 C63.07623784 102.52999875 63.04107022 114.26497542 63 126 C74.88 126 86.76 126 99 126 C99 132.6 99 139.2 99 146 C65.01 146 31.02 146 -4 146 C-4 139.4 -4 132.8 -4 126 C9.86 126 23.72 126 38 126 C37.9092386 109.08385573 37.9092386 109.08385573 37.79101562 92.16796875 C37.73669752 85.26808742 37.6855871 78.36828724 37.65356445 71.46826172 C37.62754408 65.90493941 37.58715017 60.3418897 37.53681374 54.77873611 C37.52013655 52.65692156 37.50862759 50.53505985 37.50238609 48.41318893 C37.49275449 45.43971978 37.46470573 42.46694938 37.43237305 39.49365234 C37.43380814 38.6175531 37.43524323 37.74145386 37.4367218 36.83880615 C37.35988796 31.8383117 36.8185772 28.30930458 34 24 C27.67188263 19.88365181 20.40060184 20.44717937 13.0625 20.3125 C11.80630859 20.27833984 10.55011719 20.24417969 9.25585938 20.20898438 C6.17087911 20.12687463 3.08545491 20.06175169 0 20 C0 13.4 0 6.8 0 0 Z " fill="#0D0D0F" transform="translate(712,114)"/>
<path d="M0 0 C8.58 0 17.16 0 26 0 C26 8.58 26 17.16 26 26 C39.53 26 53.06 26 67 26 C67 32.93 67 39.86 67 47 C53.47 47 39.94 47 26 47 C26.08869891 54.56508307 26.17922795 62.12975819 26.28729248 69.69452667 C26.33710094 73.21778059 26.38359057 76.74100471 26.421875 80.2644043 C26.46602393 84.31317507 26.52561023 88.36159398 26.5859375 92.41015625 C26.59748871 93.66458023 26.60903992 94.91900421 26.62094116 96.21144104 C26.61935536 104.84214716 26.61935536 104.84214716 29 113 C32.88858932 115.57753336 37.38661676 115.34102631 41.92578125 115.4140625 C42.67337204 115.43342865 43.42096283 115.4527948 44.19120789 115.4727478 C46.56485806 115.53223918 48.93855754 115.57880592 51.3125 115.625 C52.92775482 115.66320789 54.54298987 115.70226125 56.15820312 115.7421875 C60.10536238 115.83949805 64.05232655 115.91930522 68 116 C68 122.6 68 129.2 68 136 C62.46812716 136.02306015 56.93642377 136.0429423 51.40454102 136.05493164 C49.52595451 136.05993432 47.64737185 136.06673856 45.76879883 136.07543945 C43.05549161 136.08768427 40.34223624 136.09326911 37.62890625 136.09765625 C36.38615685 136.10539818 36.38615685 136.10539818 35.11830139 136.11329651 C25.01488852 136.11425023 17.11200222 135.58325477 9 129 C0.49689401 119.4975599 0.7140083 108.85475793 0.8046875 96.78125 C0.80842367 95.31294956 0.81126778 93.84464661 0.81326294 92.37634277 C0.82085193 88.53602051 0.84045897 84.69585263 0.8626709 80.85559082 C0.88685534 76.23492625 0.89593289 71.61420968 0.90757751 66.99349976 C0.92688677 59.99555955 0.96524193 52.99795725 1 46 C-10.22 46 -21.44 46 -33 46 C-33 39.4 -33 32.8 -33 26 C-22.11 26 -11.22 26 0 26 C0 17.42 0 8.84 0 0 Z " fill="#046C3E" transform="translate(1094,124)"/>
<path d="M0 0 C6.53279339 -0.02464347 13.06555998 -0.04283291 19.59838867 -0.05493164 C21.82267732 -0.05997317 24.04696263 -0.06680623 26.27124023 -0.07543945 C29.46078309 -0.08751298 32.65028229 -0.09322996 35.83984375 -0.09765625 C37.34139259 -0.10539818 37.34139259 -0.10539818 38.87327576 -0.11329651 C39.79415482 -0.11337204 40.71503387 -0.11344757 41.66381836 -0.11352539 C42.47878281 -0.115746 43.29374725 -0.11796661 44.13340759 -0.12025452 C46 0 46 0 47 1 C47.23481693 3.18292774 47.41363323 5.37203174 47.5625 7.5625 C47.64628906 8.76003906 47.73007813 9.95757812 47.81640625 11.19140625 C47.87699219 12.11824219 47.93757813 13.04507813 48 14 C48.59167969 13.23945313 49.18335938 12.47890625 49.79296875 11.6953125 C51.5573612 9.54056774 53.22590391 7.69765912 55.3125 5.875 C55.84488281 5.39804688 56.37726563 4.92109375 56.92578125 4.4296875 C62.43208291 0.63438353 67.0393648 -0.3730197 73.68359375 -0.29296875 C74.38396255 -0.28872391 75.08433136 -0.28447906 75.80592346 -0.28010559 C78.01686 -0.26347156 80.22684457 -0.2258518 82.4375 -0.1875 C83.94725235 -0.17243326 85.45701916 -0.15874836 86.96679688 -0.14648438 C90.64518243 -0.11618466 94.3215408 -0.05744268 98 0 C98 6.93 98 13.86 98 21 C96.01097656 21.02578125 94.02195312 21.0515625 91.97265625 21.078125 C90.01649061 21.11989366 88.06032545 21.16180468 86.10424805 21.20751953 C84.10293229 21.24915877 82.1012406 21.2712655 80.09960938 21.29296875 C71.47802281 21.51013718 64.02658254 22.07938016 57.625 28.3125 C53.13347317 35.74079437 52.53818738 41.45723836 52.48828125 50.05859375 C52.47033005 51.20288345 52.45237885 52.34717316 52.43388367 53.52613831 C52.37991547 57.16322195 52.34592731 60.80017534 52.3125 64.4375 C52.27931513 66.91082536 52.24482439 69.38413357 52.20898438 71.85742188 C52.12175044 77.90496529 52.06156343 83.95192332 52 90 C63.22 90 74.44 90 86 90 C86 96.6 86 103.2 86 110 C57.62 110 29.24 110 0 110 C0 103.4 0 96.8 0 90 C8.91 90 17.82 90 27 90 C27 66.9 27 43.8 27 20 C18.09 20 9.18 20 0 20 C0 13.4 0 6.8 0 0 Z " fill="#0C0C0E" transform="translate(1541,150)"/>
<path d="M0 0 C21.45 0 42.9 0 65 0 C65 29.7 65 59.4 65 90 C76.88 90 88.76 90 101 90 C101 96.6 101 103.2 101 110 C67.01 110 33.02 110 -2 110 C-2 103.4 -2 96.8 -2 90 C11.86 90 25.72 90 40 90 C40 67.23 40 44.46 40 21 C27.21006205 21.03960405 27.21006205 21.03960405 14.42016602 21.09008789 C12.8230801 21.09300703 11.22599345 21.09555559 9.62890625 21.09765625 C8.79194214 21.10277222 7.95497803 21.10788818 7.09265137 21.11315918 C5.06141735 21.11346924 3.03027529 21.06240188 1 21 C0.67 20.67 0.34 20.34 0 20 C0 13.4 0 6.8 0 0 Z " fill="#0E0E10" transform="translate(1896,150)"/>
<path d="M0 0 C7.29052158 3.74307637 12.0758496 10.1164005 14.59375 17.84375 C15.5057548 22.92491962 15.64525643 27.90755384 15.6875 33.0625 C15.69773193 34.03195557 15.70796387 35.00141113 15.71850586 36.00024414 C15.59401123 46.26539254 13.2465303 55.72267529 6.25 63.5 C0.87829491 67.98165649 -4.20680135 69.16622973 -11.1171875 68.78125 C-11.98601563 68.6884375 -12.85484375 68.595625 -13.75 68.5 C-14.47445312 68.4278125 -15.19890625 68.355625 -15.9453125 68.28125 C-22.50686741 67.14906013 -27.22657765 62.97157216 -31.0703125 57.68359375 C-37.82854116 45.6939955 -36.84564357 29.67018873 -33.78515625 16.7734375 C-31.38080071 9.17023017 -27.49241537 4.3004253 -20.58203125 0.375 C-14.16813257 -2.68835459 -6.57987446 -2.56637715 0 0 Z " fill="#F5F6F8" transform="translate(2071.75,171.5)"/>
<path d="M0 0 C31.68 0 63.36 0 96 0 C96 6.27 96 12.54 96 19 C64.32 19 32.64 19 0 19 C0 12.73 0 6.46 0 0 Z " fill="#056D3E" transform="translate(139,245)"/>
<path d="M0 0 C0.64603209 9.9632505 0.31773108 17.79847699 -6.38671875 25.6171875 C-13.20068628 31.92710811 -20.91633533 32.57119834 -29.77734375 32.34375 C-34.23533421 31.86823102 -35.91476607 31.25200333 -39 28 C-41.43280575 23.62094965 -42.74480171 20.00081149 -42 15 C-39.57451001 9.72719567 -36.72197458 8.1173616 -31.64575195 5.96337891 C-26.97077458 4.26111253 -22.17747659 3.25263289 -17.3125 2.25 C-16.30638672 2.02957031 -15.30027344 1.80914062 -14.26367188 1.58203125 C-9.44514521 0.55924576 -4.95640469 -0.3039703 0 0 Z " fill="#F3F6F7" transform="translate(1248,211)"/>
<path d="M0 0 C7.55787142 4.27079719 11.2608637 9.7138992 13.6875 17.9375 C13.6875 19.2575 13.6875 20.5775 13.6875 21.9375 C-2.4825 21.9375 -18.6525 21.9375 -35.3125 21.9375 C-34.06919757 13.23438296 -32.18699357 7.64958064 -25.15234375 2.19140625 C-17.27359605 -3.17818613 -8.66822821 -3.95553185 0 0 Z " fill="#F1F2F4" transform="translate(1716.3125,172.0625)"/>
<path d="M0 0 C5.50008111 3.08669099 9.0432151 6.9478911 12.0625 12.4375 C12.6875 14.9375 12.6875 14.9375 12.6875 21.9375 C-3.1525 21.9375 -18.9925 21.9375 -35.3125 21.9375 C-34.06919757 13.23438296 -32.18699357 7.64958064 -25.15234375 2.19140625 C-17.27359605 -3.17818613 -8.66822821 -3.95553185 0 0 Z " fill="#F1F2F4" transform="translate(2189.3125,172.0625)"/>
<path d="M0 0 C8.58 0 17.16 0 26 0 C26 7.92 26 15.84 26 24 C17.42 24 8.84 24 0 24 C0 16.08 0 8.16 0 0 Z " fill="#151517" transform="translate(1935,112)"/>
</svg>
