<?xml version="1.0" encoding="UTF-8"?>
<svg version="1.1" xmlns="http://www.w3.org/2000/svg" width="2350" height="376">
<path d="M0 0 C1.01587871 -0.00311998 2.03175743 -0.00623996 3.07842034 -0.00945449 C6.46902187 -0.01740648 9.85944304 -0.01112163 13.25004578 -0.00482178 C15.68654993 -0.00753293 18.12305327 -0.01109456 20.55955505 -0.01544189 C26.48311569 -0.02360896 32.40662981 -0.0224214 38.33018915 -0.01661661 C43.1477954 -0.01209197 47.96538746 -0.01149069 52.78299522 -0.01366425 C53.4698003 -0.01397071 54.15660538 -0.01427718 54.86422273 -0.01459293 C56.25968042 -0.01523241 57.6551381 -0.01588084 59.05059578 -0.01653811 C72.12595082 -0.02223663 85.20127779 -0.0156917 98.27662822 -0.00493738 C109.47920726 0.00399171 120.68174483 0.00245046 131.88432312 -0.0067749 C144.90961059 -0.01749634 157.93487345 -0.02168106 170.96016473 -0.01555037 C172.35128319 -0.01491332 173.74240166 -0.01428458 175.13352013 -0.01366425 C176.16005371 -0.01320142 176.16005371 -0.01320142 177.20732534 -0.01272924 C182.01378561 -0.01100747 186.82023017 -0.01390634 191.626688 -0.01862335 C198.10687567 -0.0248434 204.58700369 -0.02036626 211.06718445 -0.00883484 C213.44109149 -0.00619774 215.81500514 -0.00693705 218.18890953 -0.01136017 C221.43836458 -0.01685481 224.68757227 -0.00993396 227.93701172 0 C228.86835963 -0.00446144 229.79970754 -0.00892289 230.75927812 -0.01351953 C250.2188488 0.10124633 265.72310677 7.76594069 279.84648132 20.87896729 C293.11165022 34.58701145 299.00639424 52.85475992 298.91294861 71.63858032 C298.91606859 72.62294276 298.91918857 73.6073052 298.9224031 74.6214968 C298.93031762 77.88755879 298.9240851 81.15343158 298.91777039 84.41949463 C298.92048319 86.77437956 298.92404575 89.12926364 298.9283905 91.48414612 C298.93748329 97.85815255 298.9339828 104.23209399 298.92763233 110.60610151 C298.92307039 116.61199005 298.92655952 122.61787275 298.92948672 128.62376113 C298.9351793 141.24614208 298.92864946 153.8684939 298.91788599 166.49087007 C298.90895559 177.29765926 298.91050038 188.10440545 298.91972351 198.91119385 C298.93045229 211.48788587 298.93462574 224.06455239 298.92849898 236.64124835 C298.92534804 243.28866631 298.92494249 249.93606039 298.93157196 256.58347702 C298.93737268 262.83636339 298.93329876 269.08916904 298.92178345 275.34204674 C298.91915118 277.62965066 298.91987728 279.91726145 298.92430878 282.20486259 C298.97629389 311.77963488 298.97629389 311.77963488 293.47148132 323.44146729 C293.16178406 324.1165332 292.85208679 324.79159912 292.53300476 325.48712158 C284.02157232 343.50384926 270.13226136 355.62011144 251.72148132 362.69146729 C244.44066485 365.2645609 237.13699376 365.40033213 229.50741577 365.38768005 C228.49985302 365.38994561 227.49229027 365.39221117 226.45419532 365.39454538 C223.08584077 365.40086375 219.71752668 365.4000574 216.34916687 365.39923096 C213.93089242 365.40222379 211.51261844 365.4056266 209.09434509 365.40940857 C203.21177137 365.41732303 197.32920709 365.42046267 191.44662913 365.42102095 C186.66284136 365.42149687 181.87905688 365.42355543 177.09527016 365.42672157 C163.51891264 365.4355236 149.94256301 365.44014164 136.36620262 365.4393911 C135.63499976 365.43935114 134.90379691 365.43931119 134.1504364 365.43927002 C133.41833617 365.43922914 132.68623593 365.43918826 131.93195084 365.43914614 C120.06982857 365.43873977 108.20773804 365.44830819 96.34562495 365.46240839 C84.15251899 365.47678715 71.9594285 365.48367775 59.76631385 365.48281461 C52.92610158 365.48248316 46.08592261 365.48520724 39.245718 365.49599266 C32.81151638 365.50607327 26.37736685 365.50574699 19.94316101 365.49847603 C17.58495799 365.49743125 15.22675057 365.49978672 12.86855507 365.50583649 C9.64278711 365.51357438 6.41726071 365.50889958 3.1914978 365.50120544 C2.26433683 365.50634901 1.33717585 365.51149257 0.38191909 365.516792 C-16.75625409 365.42681979 -33.76361809 359.06885408 -46.40351868 347.32427979 C-64.42415442 328.06835853 -68.11100345 307.28033876 -67.97212219 281.88824463 C-67.97727075 279.47660294 -67.98455905 277.06496503 -67.99380493 274.65333557 C-68.01030239 268.82380231 -68.00376814 262.99464312 -67.98571671 257.1651213 C-67.97160528 252.42211563 -67.96781608 247.67920095 -67.97115898 242.9361763 C-67.97163642 242.25729625 -67.97211387 241.57841619 -67.97260578 240.87896401 C-67.97363225 239.49921704 -67.97468762 238.11947009 -67.97577154 236.73972316 C-67.98430893 224.58164366 -67.96775901 212.42372611 -67.9379425 200.26568604 C-67.90909954 188.50422366 -67.90203145 176.74299441 -67.91743469 164.98150635 C-67.93424365 152.12931477 -67.93818439 139.27723347 -67.92072433 126.42503893 C-67.91888021 125.05140155 -67.91704548 123.67776415 -67.91522026 122.30412674 C-67.91430817 121.62851698 -67.91339608 120.95290721 -67.91245635 120.25682443 C-67.90688103 115.52576437 -67.91012975 110.79475869 -67.91676521 106.06370163 C-67.92446504 99.6825884 -67.91218131 93.30180815 -67.88491631 86.92075157 C-67.8780707 84.58883972 -67.87789303 82.25689655 -67.88513184 79.92498589 C-67.944126 58.433238 -65.11234856 40.00495994 -50.34101868 23.25396729 C-49.68488586 22.50373291 -49.02875305 21.75349854 -48.35273743 20.98052979 C-35.63403745 7.35501207 -18.48618033 -0.08792273 0 0 Z " fill="#89E8B0" transform="translate(71.34101867675781,4.74603271484375)"/>
<path d="M0 0 C2.5821077 2.31469077 4.02432728 4.65751439 5.80078125 7.625 C8.98175831 12.13436261 10.99501186 13.77523626 16.42578125 14.8125 C18.08673828 15.07160156 18.08673828 15.07160156 19.78125 15.3359375 C23.81789264 16.16925108 27.08516806 17.58018343 30.73828125 19.4375 C31.85074219 20.00210938 32.96320313 20.56671875 34.109375 21.1484375 C45.12947508 27.75779985 51.30755663 37.79549867 55.61328125 49.6875 C58.49259582 63.66064422 55.94023972 76.04915469 48.30078125 88.0625 C43.9533097 94.14008778 38.3880457 100.01711462 31.65052795 103.38876343 C29.09230899 104.83205732 29.09230899 104.83205732 28.6884613 107.41275024 C28.69656578 108.80099503 28.69656578 108.80099503 28.70483398 110.21728516 C28.69810165 111.26912994 28.69136932 112.32097473 28.68443298 113.4046936 C28.70915428 115.11089371 28.70915428 115.11089371 28.734375 116.8515625 C28.72874039 118.02455902 28.72310577 119.19755554 28.71730042 120.40609741 C28.70079921 124.16696708 28.71641876 127.92667052 28.73828125 131.6875 C28.75490358 135.42680179 28.76390736 139.16531821 28.74855042 142.90463257 C28.73931425 145.23196674 28.74828672 147.55946672 28.77818298 149.8866272 C28.75282567 157.47049693 27.87523793 164.16068984 22.57981873 169.94107056 C16.3136663 175.84691589 9.73995369 176.36125668 1.47509766 176.35302734 C0.01539299 176.36310318 0.01539299 176.36310318 -1.47380066 176.37338257 C-4.68180486 176.3923369 -7.88959958 176.39628538 -11.09765625 176.3984375 C-13.33436163 176.40486681 -15.57106616 176.41159527 -17.80776978 176.41860962 C-22.49328562 176.43057569 -27.17872777 176.43429109 -31.86425781 176.43310547 C-37.85861606 176.43290223 -43.85250048 176.46021272 -49.84674644 176.49464989 C-54.46566933 176.51692118 -59.08447817 176.52094294 -63.70344925 176.51988602 C-65.91297667 176.5222413 -68.12250728 176.53106066 -70.33198166 176.54655075 C-73.42657127 176.56621634 -76.52013891 176.56037013 -79.61474609 176.54833984 C-80.97410027 176.56519836 -80.97410027 176.56519836 -82.36091614 176.58239746 C-89.22551906 176.51481946 -94.4028902 174.79247094 -99.72265625 170.38671875 C-100.16867188 169.84660156 -100.6146875 169.30648437 -101.07421875 168.75 C-101.53570312 168.21761719 -101.9971875 167.68523437 -102.47265625 167.13671875 C-106.40298643 160.49020497 -105.89616411 153.50143884 -105.76171875 146.03125 C-105.75278716 143.67058084 -105.7463528 141.30990114 -105.7421875 138.94921875 C-105.72792514 135.24838198 -105.69898289 131.55030089 -105.62744141 127.85009766 C-105.56404696 124.26330654 -105.56391384 120.68098907 -105.57421875 117.09375 C-105.53820557 115.99252808 -105.50219238 114.89130615 -105.46508789 113.75671387 C-105.53419201 107.6695865 -105.53419201 107.6695865 -108.90649414 102.82519531 C-111.43576182 101.04080029 -113.97014522 99.51770182 -116.69921875 98.0625 C-125.51724616 92.11545826 -130.74672784 81.85935968 -133.28125 71.73828125 C-135.04306338 60.45938253 -133.75418161 50.63436745 -129.69921875 40.0625 C-129.03921875 40.0625 -128.37921875 40.0625 -127.69921875 40.0625 C-127.38984375 38.7940625 -127.38984375 38.7940625 -127.07421875 37.5 C-123.1513855 27.69291689 -113.69465209 21.64940289 -104.546875 17.125 C-101.21883802 15.88326329 -98.02006868 15.41073954 -94.51171875 14.875 C-89.53648291 13.96120318 -89.53648291 13.96120318 -85.63671875 10.97265625 C-84.53731339 9.25747818 -83.47542831 7.5177619 -82.44921875 5.7578125 C-75.91520812 -4.30573066 -63.33109792 -10.82496005 -51.91723633 -13.46484375 C-31.41210214 -17.60679703 -16.39419102 -11.76775506 0 0 Z " fill="#08090B" transform="translate(225.69921875,106.9375)"/>
<path d="M0 0 C5.27270193 3.82358186 8.95354108 8.19117145 12.609375 13.5234375 C13.70695925 15.00749507 14.8110056 16.48679801 15.921875 17.9609375 C16.65857422 18.94900391 16.65857422 18.94900391 17.41015625 19.95703125 C18.52016512 21.47809876 18.52016512 21.47809876 19.609375 22.5234375 C22.1302149 22.85004809 24.64458162 23.13345888 27.171875 23.3984375 C36.03726212 24.45009759 42.72913754 25.72127521 49.0703125 32.5546875 C54.79375608 39.8760468 56.30402955 47.40118153 55.609375 56.5234375 C54.36271956 64.11774222 51.41718882 69.47448437 45.609375 74.5234375 C42.52496191 76.71250305 39.40009035 78.77209162 36.18359375 80.76171875 C33.40184666 82.43025022 33.40184666 82.43025022 31.609375 85.5234375 C30.949375 85.5234375 30.289375 85.5234375 29.609375 85.5234375 C27.66236455 93.31147928 28.01026069 101.50572367 27.609375 109.5234375 C-4.070625 109.5234375 -35.750625 109.5234375 -68.390625 109.5234375 C-68.885625 100.1184375 -68.885625 100.1184375 -69.390625 90.5234375 C-73.66000101 83.09575803 -73.66000101 83.09575803 -79.703125 79.0859375 C-86.96925333 74.77136737 -93.43021433 68.99763851 -95.99609375 60.6875 C-97.52256026 52.3146045 -96.76430528 43.91914172 -92.703125 36.3984375 C-88.29165869 30.91391181 -82.61978378 25.38194655 -75.39648438 24.19604492 C-72.45936023 23.93169031 -69.52640224 23.74066433 -66.58007812 23.61523438 C-62.21775052 23.26951117 -60.79822739 22.92322285 -57.5390625 19.7265625 C-55.00071447 15.94286412 -55.00071447 15.94286412 -52.578125 12.0859375 C-47.4451193 4.28796976 -40.50563601 -1.061966 -31.6640625 -4.0625 C-21.35129303 -5.94077073 -9.04253128 -5.58509285 0 0 Z " fill="#88E7AF" transform="translate(207.390625,116.4765625)"/>
<path d="M0 0 C12.69779018 8.27367324 19.51956614 19.09194518 22.94921875 33.66796875 C25.88103223 48.6637985 25.99710264 64.93864937 21.52734375 79.625 C21.26050781 80.51058594 20.99367188 81.39617187 20.71875 82.30859375 C16.69161775 93.78144606 8.8028633 103.51172401 -2.11328125 108.9375 C-12.76202748 113.12717065 -24.75116304 113.34065075 -35.53515625 109.5625 C-42.22450472 106.62019259 -47.41235539 102.71545128 -51.47265625 96.625 C-51.80265625 111.145 -52.13265625 125.665 -52.47265625 140.625 C-60.72265625 140.625 -68.97265625 140.625 -77.47265625 140.625 C-77.47265625 93.765 -77.47265625 46.905 -77.47265625 -1.375 C-69.55265625 -1.375 -61.63265625 -1.375 -53.47265625 -1.375 C-53.14265625 3.575 -52.81265625 8.525 -52.47265625 13.625 C-51.58578125 12.3875 -50.69890625 11.15 -49.78515625 9.875 C-39.08099878 -4.2974043 -15.7093615 -8.73569549 0 0 Z " fill="#ECECEC" transform="translate(2088.47265625,151.375)"/>
<path d="M0 0 C0.97283936 0.00563965 1.94567871 0.0112793 2.94799805 0.01708984 C15.32300406 0.22587221 25.09282162 2.45353739 34.21875 11.19921875 C44.22988388 21.99512372 45.53132538 33.72305852 45.55859375 47.99609375 C45.58372112 50.41081005 45.60911954 52.82552353 45.63476562 55.24023438 C45.66364761 59.01488704 45.68769464 62.78949142 45.70629883 66.56420898 C45.72785363 70.22923621 45.76724421 73.89374444 45.80859375 77.55859375 C45.80876747 79.26008827 45.80876747 79.26008827 45.8089447 80.99595642 C45.82895287 82.56888206 45.82895287 82.56888206 45.84936523 84.17358398 C45.85443588 85.0960643 45.85950653 86.01854462 45.86473083 86.96897888 C46.10571326 89.30529101 46.10571326 89.30529101 47.27503967 91.07118225 C50.00188023 92.9793266 50.00188023 92.9793266 57.25 93.3125 C57.25 99.9125 57.25 106.5125 57.25 113.3125 C53.0425 113.4053125 53.0425 113.4053125 48.75 113.5 C47.4496582 113.54096802 47.4496582 113.54096802 46.12304688 113.58276367 C39.78599987 113.64955259 34.29717743 112.75255479 29.19140625 108.6640625 C26.50487022 105.30018452 24.52091656 102.78262332 24.25 98.3125 C23.59 98.3125 22.93 98.3125 22.25 98.3125 C22.023125 98.869375 21.79625 99.42625 21.5625 100 C17.40527311 107.32463786 9.06872901 112.39212595 1.12890625 114.80859375 C-11.52544612 117.02353467 -24.18104086 116.15217689 -35.0625 109.0625 C-39.22581264 105.94980387 -42.29230816 102.89819332 -44.75 98.3125 C-45.06710937 97.73113281 -45.38421875 97.14976562 -45.7109375 96.55078125 C-48.84419787 89.6949776 -48.89359989 81.64058575 -46.98828125 74.4296875 C-42.98511765 63.82842421 -35.86813864 58.68575445 -25.83203125 53.9296875 C-11.39598892 48.22700245 4.85991904 45.80447834 20.25 44.3125 C18.88905768 33.16574148 18.88905768 33.16574148 12.25 24.5 C6.52676945 21.10183186 -1.62871999 21.38283293 -7.94921875 22.80859375 C-12.76974736 24.65942577 -15.44730372 27.61165125 -17.65625 32.19140625 C-18.39382428 33.88168065 -19.07670858 35.59560687 -19.75 37.3125 C-28.49507107 37.41871544 -37.05019136 37.32536753 -45.75 36.3125 C-44.59611961 25.66854213 -40.10739054 16.68869586 -31.8125 9.8125 C-21.75544283 2.47891217 -12.37977396 -0.07468622 0 0 Z " fill="#88E6AE" transform="translate(1227.75,147.6875)"/>
<path d="M0 0 C11.85765067 8.97793551 17.51755615 20.89603777 20.8671875 35.07421875 C21.7201529 41.95405813 21.4609375 48.93076801 21.4609375 55.86328125 C-3.9490625 55.86328125 -29.3590625 55.86328125 -55.5390625 55.86328125 C-50.95156004 71.80280572 -50.95156004 71.80280572 -39.5390625 81.86328125 C-32.97954071 84.04978851 -24.19861802 84.20892514 -17.66015625 81.8046875 C-11.91433971 78.21719799 -10.45135136 75.12294342 -6.5390625 68.86328125 C1.7109375 69.52328125 9.9609375 70.18328125 18.4609375 70.86328125 C16.61308302 79.17862641 15.25438147 82.53209085 10.4609375 88.86328125 C9.7184375 89.89453125 8.9759375 90.92578125 8.2109375 91.98828125 C2.30111641 98.16673057 -4.40869364 102.33087128 -12.5390625 104.86328125 C-14.10720703 105.38341797 -14.10720703 105.38341797 -15.70703125 105.9140625 C-29.66583189 109.37174706 -44.37428505 107.03249874 -56.8515625 100.11328125 C-69.10505179 92.16936599 -75.93369019 80.85952143 -79.5390625 66.86328125 C-80.6871767 60.76014788 -80.72254721 54.73834046 -80.7265625 48.55078125 C-80.73880859 47.56916016 -80.75105469 46.58753906 -80.76367188 45.57617188 C-80.7941431 30.22882929 -76.12584068 16.37786809 -65.6953125 4.8203125 C-48.21268088 -11.40844185 -19.65227854 -13.59892626 0 0 Z " fill="#ECECEC" transform="translate(1735.5390625,156.13671875)"/>
<path d="M0 0 C13.35865836 8.67445348 19.13217056 21.88364062 23.0859375 36.734375 C24.06105538 43.5487282 23.75 50.49123182 23.75 57.375 C-1.66 57.375 -27.07 57.375 -53.25 57.375 C-48.66249754 73.31452447 -48.66249754 73.31452447 -37.25 83.375 C-30.69047821 85.56150726 -21.90955552 85.72064389 -15.37109375 83.31640625 C-9.62527721 79.72891674 -8.16228886 76.63466217 -4.25 70.375 C4 71.035 12.25 71.695 20.75 72.375 C18.90214552 80.69034516 17.54344397 84.0438096 12.75 90.375 C12.0075 91.40625 11.265 92.4375 10.5 93.5 C4.59017891 99.67844932 -2.11963114 103.84259003 -10.25 106.375 C-11.81814453 106.89513672 -11.81814453 106.89513672 -13.41796875 107.42578125 C-27.37676939 110.88346581 -42.08522255 108.54421749 -54.5625 101.625 C-66.29260092 94.02039649 -73.6400306 82.81519375 -77.25 69.375 C-78.30900335 62.90950586 -78.43321787 56.54309601 -78.4375 50 C-78.44974609 49.02289063 -78.46199219 48.04578125 -78.47460938 47.0390625 C-78.5057023 31.4511429 -73.51907101 17.82979132 -63.109375 6.10546875 C-45.90026243 -9.91057509 -20.10025964 -10.81848837 0 0 Z " fill="#ECECEC" transform="translate(2206.25,154.625)"/>
<path d="M0 0 C8.25 0 16.5 0 25 0 C25.33 28.05 25.66 56.1 26 85 C34.23367492 76.13296547 42.34014745 67.3332949 50.1418457 58.11767578 C51.17847729 56.90698964 52.22671957 55.70615595 53.28588867 54.51513672 C55.93182299 51.52827081 58.30336996 48.61526654 60.38671875 45.20703125 C63.05969344 41.18223821 65.47697894 37.97503417 70 36 C79.88130658 34.41726179 90.07330148 35.20113712 100 36 C98.13440885 40.02492516 95.46823213 42.93668106 92.4375 46.125 C91.34454378 47.29119049 90.25210005 48.45786149 89.16015625 49.625 C88.62148926 50.19863281 88.08282227 50.77226562 87.52783203 51.36328125 C85.44789401 53.59145391 83.40879973 55.85471193 81.375 58.125 C78.22486651 61.64036636 75.0559336 65.13747039 71.875 68.625 C71.05128906 69.53636719 70.22757813 70.44773437 69.37890625 71.38671875 C67.86314896 73.05181173 66.33083874 74.70209011 64.77734375 76.33203125 C64.12894531 77.02683594 63.48054688 77.72164063 62.8125 78.4375 C61.95591797 79.33275391 61.95591797 79.33275391 61.08203125 80.24609375 C59.78084286 81.93167816 59.78084286 81.93167816 60.28857422 83.89013672 C61.03506352 86.10398727 61.93597279 87.62208439 63.30078125 89.51171875 C63.77700928 90.17800293 64.2532373 90.84428711 64.74389648 91.53076172 C65.26153564 92.24248535 65.7791748 92.95420898 66.3125 93.6875 C67.41417049 95.22518305 68.51572999 96.76294563 69.6171875 98.30078125 C70.18147461 99.08404785 70.74576172 99.86731445 71.32714844 100.67431641 C73.88308169 104.22770522 76.41221283 107.79979381 78.9375 111.375 C79.42323486 112.06134521 79.90896973 112.74769043 80.40942383 113.45483398 C84.89333357 119.80856709 89.27959655 126.22803996 93.63647461 132.66943359 C95.79741645 135.85115089 97.94699563 138.93479067 100.375 141.921875 C102 144 102 144 102 146 C97.99911307 146.24888281 94.00126335 146.42936435 89.99438477 146.54931641 C88.63486228 146.59934038 87.27587087 146.66739674 85.91821289 146.75439453 C74.67842085 147.45610759 74.67842085 147.45610759 70.68676758 143.99316406 C68.87745604 141.4108926 67.42626166 138.80935777 66 136 C65.13396527 134.70289528 64.24648246 133.41968809 63.33203125 132.15625 C58.28306792 124.8415114 53.27697693 117.49732596 48.3125 110.125 C47.51839722 108.95614258 47.51839722 108.95614258 46.70825195 107.76367188 C46.22316162 107.03986328 45.73807129 106.31605469 45.23828125 105.5703125 C44.80555908 104.92852051 44.37283691 104.28672852 43.92700195 103.62548828 C43 102 43 102 43 100 C38.72632564 103.33555072 35.20622463 106.89168207 31.7109375 111.03515625 C30 113 30 113 27.93115234 114.7019043 C25.34175488 117.78332001 25.46062288 119.74449589 25.390625 123.734375 C25.35839844 125.02988281 25.32617188 126.32539063 25.29296875 127.66015625 C25.27822531 129.02343302 25.26390778 130.38671445 25.25 131.75 C25.22183186 133.12894376 25.19190322 134.50785275 25.16015625 135.88671875 C25.0894407 139.2574935 25.04245906 142.62875093 25 146 C16.75 146 8.5 146 0 146 C0 97.82 0 49.64 0 0 Z " fill="#89E7AF" transform="translate(1421,114)"/>
<path d="M0 0 C1.07636719 -0.00773438 2.15273437 -0.01546875 3.26171875 -0.0234375 C16.71330534 0.00933129 26.7929857 3.34081724 36.90625 12.5 C42.89617052 19.07716763 47.5 28.23133727 47.5 37.25 C39.14895793 37.93271293 30.88011029 38.40392039 22.5 38.25 C21.984375 37.05375 21.46875 35.8575 20.9375 34.625 C18.6824925 30.09082421 15.69216544 27.06098796 11.5 24.25 C7.51977513 22.92325838 3.85636239 22.98748636 -0.3125 22.9375 C-1.50456055 22.89399414 -1.50456055 22.89399414 -2.72070312 22.84960938 C-8.14296879 22.79130544 -11.22117398 23.61332551 -15.5 27.25 C-17.95777568 30.93666352 -18.30407265 33.96998827 -17.5 38.25 C-11.60638024 46.28675422 -1.63882551 47.20351042 7.5 49.0625 C36.06941252 55.18328773 36.06941252 55.18328773 44.5 65.25 C49.11964108 72.85005468 49.1735497 80.52272035 48.5 89.25 C46.59085592 97.01308587 41.51802294 103.40845418 35.05859375 107.9765625 C19.87258717 116.95111661 0.2490036 117.70105346 -16.6875 113.6875 C-28.87234438 109.83612298 -37.87474912 103.02880479 -43.87890625 91.6328125 C-46.04213507 86.67321472 -46.96873145 82.64041169 -46.5 77.25 C-38.14736824 76.29541351 -29.90215965 76.13960666 -21.5 76.25 C-21.22027344 76.91386719 -20.94054688 77.57773438 -20.65234375 78.26171875 C-17.96543908 84.17982068 -15.55073004 88.47347452 -9.5 91.25 C-1.08088134 93.35477966 9.27471298 93.21929449 17.5 90.25 C20.19138543 88.80985074 20.19138543 88.80985074 21.5 86.25 C22.1008357 83.44224854 22.36618339 81.0045708 21.5 78.25 C17.8399712 74.52155945 14.40423223 73.43297576 9.375 72.3125 C7.95025272 71.98031454 6.525785 71.64692831 5.1015625 71.3125 C3.98056152 71.05533203 3.98056152 71.05533203 2.83691406 70.79296875 C-32.09904072 62.67579748 -32.09904072 62.67579748 -40.9375 50 C-45.47456014 42.01477415 -44.84603436 29.73262776 -42.69921875 20.98828125 C-38.65697125 12.13978758 -30.45912038 5.68053949 -21.5 2.25 C-14.38114985 0.07197947 -7.39490389 -0.05313703 0 0 Z " fill="#EBEBEB" transform="translate(2295.5,147.75)"/>
<path d="M0 0 C1.05469482 0.01087646 2.10938965 0.02175293 3.19604492 0.03295898 C16.61723806 0.30813238 26.9835127 3.01380552 37.12890625 12.2578125 C43.96862115 19.55547807 47.58041451 27.41189979 48.0625 37.375 C39.70630043 38.12975351 31.45254715 38.51105482 23.0625 38.375 C22.546875 37.17875 22.03125 35.9825 21.5 34.75 C19.2449925 30.21582421 16.25466544 27.18598796 12.0625 24.375 C8.08227513 23.04825838 4.41886239 23.11248636 0.25 23.0625 C-0.94206055 23.01899414 -0.94206055 23.01899414 -2.15820312 22.97460938 C-7.57485065 22.91636585 -10.65274123 23.74943489 -14.9375 27.375 C-16.7884958 31.07699161 -16.39599694 35.33367693 -15.9375 39.375 C-12.94543102 44.04262761 -7.4732688 45.78063958 -2.2512207 47.00463867 C0.86956116 47.61465276 3.99549214 48.18652492 7.125 48.75 C36.75394397 54.42932741 36.75394397 54.42932741 45.52734375 65.16796875 C50.12673499 72.58264573 50.31344082 83.38624393 48.56640625 91.75 C47.87650459 93.74564774 47.071353 95.52133514 46.0625 97.375 C45.74539063 97.97828125 45.42828125 98.5815625 45.1015625 99.203125 C39.27724836 108.70377927 28.23485791 111.68718185 18.0625 114.375 C17.12120239 114.63869385 17.12120239 114.63869385 16.16088867 114.90771484 C2.0404175 118.05216881 -14.93395986 115.55473459 -27.4375 108.5625 C-36.53539399 102.49221642 -43.18066523 94.58126768 -45.53125 83.6015625 C-45.76594839 81.53491278 -45.86820736 79.45377919 -45.9375 77.375 C-37.58001778 76.53172251 -29.33552254 76.25309322 -20.9375 76.375 C-20.58558594 77.12265625 -20.23367188 77.8703125 -19.87109375 78.640625 C-16.69628746 84.97365895 -14.59826479 88.71069408 -7.9375 91.375 C-3.67006533 92.46998324 0.55508211 92.59223426 4.9375 92.625 C5.61941406 92.645625 6.30132813 92.66625 7.00390625 92.6875 C12.75987803 92.73135502 17.65842015 91.62397792 22 87.5625 C23.44836134 84.5805796 23.540163 82.6504034 23.0625 79.375 C19.36788614 74.62478218 15.06395833 73.23115765 9.328125 72.078125 C8.2038208 71.84480469 7.0795166 71.61148438 5.92114258 71.37109375 C4.73029053 71.12488281 3.53943848 70.87867188 2.3125 70.625 C-12.739081 67.38247595 -27.04688851 64.26561149 -38.25 53.0625 C-43.46926694 44.75033413 -43.86325368 36.02341055 -42.9375 26.375 C-40.4298523 16.1017336 -34.79738057 10.64406998 -26.2421875 4.98828125 C-17.74643234 0.84082631 -9.35735366 -0.13126548 0 0 Z " fill="#88E5AE" transform="translate(993.9375,147.625)"/>
<path d="M0 0 C8.25 0 16.5 0 25 0 C25.0093457 2.11825195 25.01869141 4.23650391 25.02832031 6.41894531 C25.06226298 13.45985547 25.11790641 20.50047786 25.18390274 27.54115677 C25.2232179 31.80512154 25.25548384 36.06888474 25.27099609 40.33300781 C25.28626891 44.45706259 25.32089908 48.58056256 25.36830902 52.70436859 C25.38301431 54.26857397 25.3910347 55.8328586 25.39188385 57.39713287 C25.33067526 73.38455015 25.33067526 73.38455015 32.5 87.1875 C37.41511523 90.75095854 43.11842389 90.52562622 49 90 C51.57823544 89.24943619 53.59013197 88.25313137 56 87 C56.763125 86.71125 57.52625 86.4225 58.3125 86.125 C60.77556996 84.48295336 61.08667984 82.80084849 62 80 C62.75567261 78.44249023 62.75567261 78.44249023 63.52661133 76.85351562 C66.05913936 70.07911593 65.48340081 62.60327324 65.51171875 55.46875 C65.52858472 53.86591228 65.54673752 52.26308763 65.56611633 50.66027832 C65.61341454 46.46496669 65.64335386 42.26970809 65.66955566 38.07421875 C65.69946363 33.7837477 65.74595853 29.49345897 65.79101562 25.203125 C65.87681899 16.80215827 65.94273053 8.40120975 66 0 C74.25 0 82.5 0 91 0 C91 36.3 91 72.6 91 110 C83.41 110 75.82 110 68 110 C68 105.05 68 100.1 68 95 C67.34 95 66.68 95 66 95 C65.814375 95.680625 65.62875 96.36125 65.4375 97.0625 C61.4569988 105.19656767 54.32161467 108.91501094 46.23828125 112.08203125 C37.7096104 114.49968825 27.20112143 114.15369085 19.1796875 110.33203125 C8.76368903 103.96669885 3.48939936 94.83557974 0.45016861 83.18629074 C-0.99206771 76.18191984 -0.59883151 68.92764765 -0.48828125 61.81640625 C-0.47892902 60.02181495 -0.47182435 58.22721068 -0.46684265 56.43260193 C-0.44796202 51.76186431 -0.39903058 47.09193289 -0.34332275 42.42150879 C-0.29171581 37.63463235 -0.26924109 32.84762269 -0.24414062 28.06054688 C-0.19088821 18.70662422 -0.10311351 9.35350598 0 0 Z " fill="#ECECEC" transform="translate(595,150)"/>
<path d="M0 0 C1.55874939 1.01592612 3.10253968 2.05545798 4.625 3.125 C5.19992187 3.5271875 5.77484375 3.929375 6.3671875 4.34375 C13.72844481 9.98865198 19.55903335 18.72024238 21.08984375 27.91796875 C21.33744849 30.32278737 21.52416396 32.70997683 21.625 35.125 C18.62484088 36.12505304 16.65076244 36.24075585 13.51953125 36.22265625 C12.53662109 36.21943359 11.55371094 36.21621094 10.54101562 36.21289062 C9.51685547 36.20451172 8.49269531 36.19613281 7.4375 36.1875 C6.40173828 36.18298828 5.36597656 36.17847656 4.29882812 36.17382812 C1.74082734 36.1620401 -0.81705733 36.14558515 -3.375 36.125 C-3.75011719 35.30515625 -4.12523437 34.4853125 -4.51171875 33.640625 C-5.02347656 32.56296875 -5.53523438 31.4853125 -6.0625 30.375 C-6.81080078 28.77398437 -6.81080078 28.77398437 -7.57421875 27.140625 C-10.69975665 21.90653551 -15.49140266 18.67623094 -21.375 17.125 C-29.37867879 15.99391175 -35.78845504 17.39055907 -42.375 22.125 C-49.77582774 29.01652347 -52.44298182 38.85803655 -52.8984375 48.6809082 C-53.07810818 59.34773204 -51.28764518 69.61947266 -44.5 78.25 C-38.88180896 83.81186832 -34.90935396 85.3872448 -27 85.6875 C-20.37897117 85.47181002 -15.3049401 84.75646773 -10.375 80.125 C-6.71035499 75.37885679 -4.45927526 71.01246748 -3.375 65.125 C0.39581722 65.09600401 4.16660583 65.07820271 7.9375 65.0625 C9.00935547 65.05412109 10.08121094 65.04574219 11.18554688 65.03710938 C12.21357422 65.03388672 13.24160156 65.03066406 14.30078125 65.02734375 C15.24864502 65.02210693 16.19650879 65.01687012 17.1730957 65.01147461 C19.625 65.125 19.625 65.125 22.625 66.125 C21.51859579 75.92458015 17.22076979 86.66571717 10.625 94.125 C9.965 94.125 9.305 94.125 8.625 94.125 C8.13 95.61 8.13 95.61 7.625 97.125 C-3.81594224 106.89801444 -18.55591636 110.08022416 -33.20458984 109.31591797 C-45.77774535 108.20993286 -57.24255947 102.25588124 -65.8203125 93.0625 C-78.54707914 77.2020069 -80.81057861 58.58360545 -79.09765625 38.9453125 C-76.92730021 24.68297283 -69.85458653 12.13925772 -58.5625 3.1875 C-53.14190762 -0.65294504 -47.76144092 -3.11032554 -41.375 -4.875 C-40.75560547 -5.0493457 -40.13621094 -5.22369141 -39.49804688 -5.40332031 C-26.74731498 -8.23616461 -11.2516077 -6.45802335 0 0 Z " fill="#EBEBEB" transform="translate(1852.375,153.875)"/>
<path d="M0 0 C1.55874939 1.01592612 3.10253968 2.05545798 4.625 3.125 C5.19992187 3.5271875 5.77484375 3.929375 6.3671875 4.34375 C13.72844481 9.98865198 19.55903335 18.72024238 21.08984375 27.91796875 C21.33744849 30.32278737 21.52416396 32.70997683 21.625 35.125 C18.62484088 36.12505304 16.65076244 36.24075585 13.51953125 36.22265625 C12.53662109 36.21943359 11.55371094 36.21621094 10.54101562 36.21289062 C9.51685547 36.20451172 8.49269531 36.19613281 7.4375 36.1875 C6.40173828 36.18298828 5.36597656 36.17847656 4.29882812 36.17382812 C1.74082734 36.1620401 -0.81705733 36.14558515 -3.375 36.125 C-3.75011719 35.30515625 -4.12523437 34.4853125 -4.51171875 33.640625 C-5.02347656 32.56296875 -5.53523438 31.4853125 -6.0625 30.375 C-6.81080078 28.77398437 -6.81080078 28.77398437 -7.57421875 27.140625 C-10.69975665 21.90653551 -15.49140266 18.67623094 -21.375 17.125 C-29.45466682 15.98317305 -35.63132106 17.56198733 -42.375 22.125 C-49.26763854 28.83625332 -52.54566149 38.99027364 -52.80615234 48.43041992 C-52.836731 59.30348434 -51.45120052 69.32299906 -44.5625 78.25 C-39.15674396 83.62852301 -34.11438025 85.37836539 -26.5 85.75 C-19.51749759 85.51799831 -14.53294822 83.91173225 -9.375 79.125 C-5.95075946 74.60690484 -4.48858608 70.69293042 -3.375 65.125 C9.495 65.62 9.495 65.62 22.625 66.125 C19.69797536 80.7601232 15.34514677 91.75492065 2.8359375 100.69921875 C-10.63139253 109.38398105 -26.01944779 111.30811926 -41.625 108.125 C-54.8807048 104.25951249 -65.31388162 95.57806098 -72.02734375 83.7265625 C-80.7437825 66.90004595 -81.92424203 47.78841211 -76.57421875 29.6875 C-74.94528325 24.84844732 -73.04281999 20.47693055 -70.375 16.125 C-69.96894531 15.44308594 -69.56289062 14.76117188 -69.14453125 14.05859375 C-62.65849652 4.33905197 -52.46534814 -1.8105617 -41.375 -4.875 C-40.75560547 -5.0493457 -40.13621094 -5.22369141 -39.49804688 -5.40332031 C-26.74731498 -8.23616461 -11.2516077 -6.45802335 0 0 Z " fill="#88E6AE" transform="translate(1379.375,153.875)"/>
<path d="M0 0 C1.50818047 0.00848969 1.50818047 0.00848969 3.04682922 0.01715088 C6.215326 0.03929795 9.38263422 0.08945188 12.55078125 0.140625 C14.71678039 0.16071806 16.88279749 0.17896387 19.04882812 0.1953125 C24.32112354 0.23566685 29.59089374 0.31399765 34.86328125 0.390625 C34.86328125 6.990625 34.86328125 13.590625 34.86328125 20.390625 C32.39472656 20.42800781 29.92617188 20.46539062 27.3828125 20.50390625 C24.98322864 20.55016188 22.58379828 20.60138071 20.18432617 20.65307617 C18.52101017 20.68626155 16.85758329 20.71431334 15.1940918 20.73706055 C12.79818626 20.77072499 10.4032909 20.8230444 8.0078125 20.87890625 C6.89814873 20.88849113 6.89814873 20.88849113 5.7660675 20.89826965 C1.30935187 21.02423111 -1.5702228 21.67840478 -5.13671875 24.390625 C-7.91887867 28.1465409 -7.51308932 31.4015896 -8.13671875 36.390625 C5.72328125 36.390625 19.58328125 36.390625 33.86328125 36.390625 C33.86328125 43.320625 33.86328125 50.250625 33.86328125 57.390625 C20.00328125 57.390625 6.14328125 57.390625 -8.13671875 57.390625 C-8.13671875 86.760625 -8.13671875 116.130625 -8.13671875 146.390625 C-16.38671875 146.390625 -24.63671875 146.390625 -33.13671875 146.390625 C-33.46671875 117.020625 -33.79671875 87.650625 -34.13671875 57.390625 C-47.99671875 56.895625 -47.99671875 56.895625 -62.13671875 56.390625 C-62.13671875 49.790625 -62.13671875 43.190625 -62.13671875 36.390625 C-52.56671875 36.390625 -42.99671875 36.390625 -33.13671875 36.390625 C-33.13671875 31.770625 -33.13671875 27.150625 -33.13671875 22.390625 C-31.58992068 14.94665929 -28.31020473 9.02960944 -22.13671875 4.390625 C-14.71514948 0.9380659 -8.11980003 -0.17656514 0 0 Z " fill="#ECECEC" transform="translate(536.13671875,113.609375)"/>
<path d="M0 0 C5.21128143 -0.09246236 10.41965148 -0.17190191 15.63110352 -0.21972656 C17.39910593 -0.23968762 19.16704366 -0.26686652 20.93481445 -0.30175781 C30.97853977 -0.49485177 39.79940038 -0.62785972 49 4 C50.093125 4.53625 51.18625 5.0725 52.3125 5.625 C58.91297768 11.45798028 62.50491281 19.58577188 63.17941666 28.32447815 C63.24442547 30.91445529 63.24760515 33.49717669 63.22705078 36.08789062 C63.22734283 37.06441589 63.22763489 38.04094116 63.22793579 39.04705811 C63.22655097 42.25021488 63.21102977 45.45313424 63.1953125 48.65625 C63.19157936 50.88683953 63.18873381 53.1174307 63.18673706 55.34802246 C63.17912435 61.20056741 63.15949617 67.05301207 63.1373291 72.90551758 C63.11681973 78.88491459 63.10772447 84.8643279 63.09765625 90.84375 C63.07624801 102.562551 63.04108515 114.28125145 63 126 C74.88 126 86.76 126 99 126 C99 132.6 99 139.2 99 146 C65.01 146 31.02 146 -4 146 C-4 139.4 -4 132.8 -4 126 C9.86 126 23.72 126 38 126 C37.88018865 109.0594819 37.88018865 109.0594819 37.7421875 92.11914062 C37.68186781 85.21039689 37.62368328 78.30168117 37.578125 71.39282227 C37.54126394 65.82307329 37.49490144 60.25347718 37.44193649 54.68385887 C37.42339697 52.55841947 37.40828738 50.43294731 37.39665604 48.30745888 C37.37978625 45.33152216 37.35074896 42.35593521 37.31884766 39.38012695 C37.31668747 38.50043243 37.31452728 37.62073792 37.31230164 36.71438599 C37.25337324 32.41420792 37.14959751 28.8485439 35 25 C30.72404286 21.38719239 27.60842151 20.48864463 22.0703125 20.390625 C20.78125 20.35839844 19.4921875 20.32617188 18.1640625 20.29296875 C16.81771285 20.2782277 15.4713585 20.26391 14.125 20.25 C12.75517097 20.22181288 11.38537665 20.19188163 10.015625 20.16015625 C6.67740144 20.0896304 3.33869758 20.04253118 0 20 C0 13.4 0 6.8 0 0 Z " fill="#EDEDED" transform="translate(830,114)"/>
<path d="M0 0 C5.21128143 -0.09246236 10.41965148 -0.17190191 15.63110352 -0.21972656 C17.39910593 -0.23968762 19.16704366 -0.26686652 20.93481445 -0.30175781 C33.92147253 -0.55143063 45.39549587 -0.44664199 55.34765625 9.078125 C62.00768122 16.82453702 63.30490145 26.12298444 63.22705078 35.97436523 C63.22734283 36.95074448 63.22763489 37.92712372 63.22793579 38.93309021 C63.22654892 42.14168362 63.21101792 45.35004119 63.1953125 48.55859375 C63.19158009 50.79061252 63.18873419 53.02263293 63.18673706 55.25465393 C63.17911859 61.11543337 63.1594854 66.97611292 63.1373291 72.83685303 C63.1168322 78.82286223 63.10772712 84.80888765 63.09765625 90.79492188 C63.07623784 102.52999875 63.04107022 114.26497542 63 126 C74.88 126 86.76 126 99 126 C99 132.6 99 139.2 99 146 C65.01 146 31.02 146 -4 146 C-4 139.4 -4 132.8 -4 126 C9.86 126 23.72 126 38 126 C37.9092386 109.08385573 37.9092386 109.08385573 37.79101562 92.16796875 C37.73669752 85.26808742 37.6855871 78.36828724 37.65356445 71.46826172 C37.62754408 65.90493941 37.58715017 60.3418897 37.53681374 54.77873611 C37.52013655 52.65692156 37.50862759 50.53505985 37.50238609 48.41318893 C37.49275449 45.43971978 37.46470573 42.46694938 37.43237305 39.49365234 C37.43380814 38.6175531 37.43524323 37.74145386 37.4367218 36.83880615 C37.35988796 31.8383117 36.8185772 28.30930458 34 24 C27.67188263 19.88365181 20.40060184 20.44717937 13.0625 20.3125 C11.80630859 20.27833984 10.55011719 20.24417969 9.25585938 20.20898438 C6.17087911 20.12687463 3.08545491 20.06175169 0 20 C0 13.4 0 6.8 0 0 Z " fill="#ECECEC" transform="translate(712,114)"/>
<path d="M0 0 C8.58 0 17.16 0 26 0 C26 8.58 26 17.16 26 26 C39.53 26 53.06 26 67 26 C67 32.93 67 39.86 67 47 C53.47 47 39.94 47 26 47 C26.08869891 54.56508307 26.17922795 62.12975819 26.28729248 69.69452667 C26.33710094 73.21778059 26.38359057 76.74100471 26.421875 80.2644043 C26.46602393 84.31317507 26.52561023 88.36159398 26.5859375 92.41015625 C26.59748871 93.66458023 26.60903992 94.91900421 26.62094116 96.21144104 C26.61935536 104.84214716 26.61935536 104.84214716 29 113 C32.88858932 115.57753336 37.38661676 115.34102631 41.92578125 115.4140625 C42.67337204 115.43342865 43.42096283 115.4527948 44.19120789 115.4727478 C46.56485806 115.53223918 48.93855754 115.57880592 51.3125 115.625 C52.92775482 115.66320789 54.54298987 115.70226125 56.15820312 115.7421875 C60.10536238 115.83949805 64.05232655 115.91930522 68 116 C68 122.6 68 129.2 68 136 C62.46812716 136.02306015 56.93642377 136.0429423 51.40454102 136.05493164 C49.52595451 136.05993432 47.64737185 136.06673856 45.76879883 136.07543945 C43.05549161 136.08768427 40.34223624 136.09326911 37.62890625 136.09765625 C36.38615685 136.10539818 36.38615685 136.10539818 35.11830139 136.11329651 C25.01488852 136.11425023 17.11200222 135.58325477 9 129 C0.49689401 119.4975599 0.7140083 108.85475793 0.8046875 96.78125 C0.80842367 95.31294956 0.81126778 93.84464661 0.81326294 92.37634277 C0.82085193 88.53602051 0.84045897 84.69585263 0.8626709 80.85559082 C0.88685534 76.23492625 0.89593289 71.61420968 0.90757751 66.99349976 C0.92688677 59.99555955 0.96524193 52.99795725 1 46 C-10.22 46 -21.44 46 -33 46 C-33 39.4 -33 32.8 -33 26 C-22.11 26 -11.22 26 0 26 C0 17.42 0 8.84 0 0 Z " fill="#87E5AE" transform="translate(1094,124)"/>
<path d="M0 0 C6.53279339 -0.02464347 13.06555998 -0.04283291 19.59838867 -0.05493164 C21.82267732 -0.05997317 24.04696263 -0.06680623 26.27124023 -0.07543945 C29.46078309 -0.08751298 32.65028229 -0.09322996 35.83984375 -0.09765625 C37.34139259 -0.10539818 37.34139259 -0.10539818 38.87327576 -0.11329651 C39.79415482 -0.11337204 40.71503387 -0.11344757 41.66381836 -0.11352539 C42.47878281 -0.115746 43.29374725 -0.11796661 44.13340759 -0.12025452 C46 0 46 0 47 1 C47.23481693 3.18292774 47.41363323 5.37203174 47.5625 7.5625 C47.64628906 8.76003906 47.73007813 9.95757812 47.81640625 11.19140625 C47.87699219 12.11824219 47.93757813 13.04507813 48 14 C48.59167969 13.23945313 49.18335938 12.47890625 49.79296875 11.6953125 C51.5573612 9.54056774 53.22590391 7.69765912 55.3125 5.875 C55.84488281 5.39804688 56.37726563 4.92109375 56.92578125 4.4296875 C62.43208291 0.63438353 67.0393648 -0.3730197 73.68359375 -0.29296875 C74.38396255 -0.28872391 75.08433136 -0.28447906 75.80592346 -0.28010559 C78.01686 -0.26347156 80.22684457 -0.2258518 82.4375 -0.1875 C83.94725235 -0.17243326 85.45701916 -0.15874836 86.96679688 -0.14648438 C90.64518243 -0.11618466 94.3215408 -0.05744268 98 0 C98 6.93 98 13.86 98 21 C96.01097656 21.02578125 94.02195312 21.0515625 91.97265625 21.078125 C90.01649061 21.11989366 88.06032545 21.16180468 86.10424805 21.20751953 C84.10293229 21.24915877 82.1012406 21.2712655 80.09960938 21.29296875 C71.47802281 21.51013718 64.02658254 22.07938016 57.625 28.3125 C53.13347317 35.74079437 52.53818738 41.45723836 52.48828125 50.05859375 C52.47033005 51.20288345 52.45237885 52.34717316 52.43388367 53.52613831 C52.37991547 57.16322195 52.34592731 60.80017534 52.3125 64.4375 C52.27931513 66.91082536 52.24482439 69.38413357 52.20898438 71.85742188 C52.12175044 77.90496529 52.06156343 83.95192332 52 90 C63.22 90 74.44 90 86 90 C86 96.6 86 103.2 86 110 C57.62 110 29.24 110 0 110 C0 103.4 0 96.8 0 90 C8.91 90 17.82 90 27 90 C27 66.9 27 43.8 27 20 C18.09 20 9.18 20 0 20 C0 13.4 0 6.8 0 0 Z " fill="#EDEDED" transform="translate(1541,150)"/>
<path d="M0 0 C21.45 0 42.9 0 65 0 C65 29.7 65 59.4 65 90 C76.88 90 88.76 90 101 90 C101 96.6 101 103.2 101 110 C67.01 110 33.02 110 -2 110 C-2 103.4 -2 96.8 -2 90 C11.86 90 25.72 90 40 90 C40 67.23 40 44.46 40 21 C27.21006205 21.03960405 27.21006205 21.03960405 14.42016602 21.09008789 C12.8230801 21.09300703 11.22599345 21.09555559 9.62890625 21.09765625 C8.79194214 21.10277222 7.95497803 21.10788818 7.09265137 21.11315918 C5.06141735 21.11346924 3.03027529 21.06240188 1 21 C0.67 20.67 0.34 20.34 0 20 C0 13.4 0 6.8 0 0 Z " fill="#EBEBEB" transform="translate(1896,150)"/>
<path d="M0 0 C7.29052158 3.74307637 12.0758496 10.1164005 14.59375 17.84375 C15.5057548 22.92491962 15.64525643 27.90755384 15.6875 33.0625 C15.69773193 34.03195557 15.70796387 35.00141113 15.71850586 36.00024414 C15.59401123 46.26539254 13.2465303 55.72267529 6.25 63.5 C0.87829491 67.98165649 -4.20680135 69.16622973 -11.1171875 68.78125 C-11.98601563 68.6884375 -12.85484375 68.595625 -13.75 68.5 C-14.47445312 68.4278125 -15.19890625 68.355625 -15.9453125 68.28125 C-22.50686741 67.14906013 -27.22657765 62.97157216 -31.0703125 57.68359375 C-37.82854116 45.6939955 -36.84564357 29.67018873 -33.78515625 16.7734375 C-31.38080071 9.17023017 -27.49241537 4.3004253 -20.58203125 0.375 C-14.16813257 -2.68835459 -6.57987446 -2.56637715 0 0 Z " fill="#09090B" transform="translate(2071.75,171.5)"/>
<path d="M0 0 C31.68 0 63.36 0 96 0 C96 6.27 96 12.54 96 19 C64.32 19 32.64 19 0 19 C0 12.73 0 6.46 0 0 Z " fill="#87E4AD" transform="translate(139,245)"/>
<path d="M0 0 C0.64603209 9.9632505 0.31773108 17.79847699 -6.38671875 25.6171875 C-13.20068628 31.92710811 -20.91633533 32.57119834 -29.77734375 32.34375 C-34.23533421 31.86823102 -35.91476607 31.25200333 -39 28 C-41.43280575 23.62094965 -42.74480171 20.00081149 -42 15 C-39.57451001 9.72719567 -36.72197458 8.1173616 -31.64575195 5.96337891 C-26.97077458 4.26111253 -22.17747659 3.25263289 -17.3125 2.25 C-16.30638672 2.02957031 -15.30027344 1.80914062 -14.26367188 1.58203125 C-9.44514521 0.55924576 -4.95640469 -0.3039703 0 0 Z " fill="#090B0C" transform="translate(1248,211)"/>
<path d="M0 0 C7.55787142 4.27079719 11.2608637 9.7138992 13.6875 17.9375 C13.6875 19.2575 13.6875 20.5775 13.6875 21.9375 C-2.4825 21.9375 -18.6525 21.9375 -35.3125 21.9375 C-34.06919757 13.23438296 -32.18699357 7.64958064 -25.15234375 2.19140625 C-17.27359605 -3.17818613 -8.66822821 -3.95553185 0 0 Z " fill="#0D0D0F" transform="translate(1716.3125,172.0625)"/>
<path d="M0 0 C5.50008111 3.08669099 9.0432151 6.9478911 12.0625 12.4375 C12.6875 14.9375 12.6875 14.9375 12.6875 21.9375 C-3.1525 21.9375 -18.9925 21.9375 -35.3125 21.9375 C-34.06919757 13.23438296 -32.18699357 7.64958064 -25.15234375 2.19140625 C-17.27359605 -3.17818613 -8.66822821 -3.95553185 0 0 Z " fill="#0C0C0E" transform="translate(2189.3125,172.0625)"/>
<path d="M0 0 C8.58 0 17.16 0 26 0 C26 7.92 26 15.84 26 24 C17.42 24 8.84 24 0 24 C0 16.08 0 8.16 0 0 Z " fill="#E4E4E4" transform="translate(1935,112)"/>
</svg>
